<?xml version="1.0" encoding="utf-8"?>
<!-- Generator: Adobe Illustrator 20.1.0, SVG Export Plug-In . SVG Version: 6.00 Build 0)  -->
<svg version="1.1" id="Layer_1" xmlns="http://www.w3.org/2000/svg" xmlns:xlink="http://www.w3.org/1999/xlink" x="0px" y="0px"
	 viewBox="0 0 595.3 841.9" style="enable-background:new 0 0 595.3 841.9;" xml:space="preserve">
<style type="text/css">
	.st0{fill:#FFFFFF;}
	.st1{fill:#ED1C24;}
	.st2{fill:#A70E13;}
</style>
<g>
	<g>
		<path class="st0" d="M520.6,438.5l2.4,0l-1.9-1.8c-0.1-0.1-14.1-14-29.4-22.5c-1-0.5-1.9-1-2.9-1.5c-9.6-4.8-25.9-10.5-31.6-12.5
			c0-0.1,0-0.1,0-0.2c0.1-9.6,0.5-18.6,1.2-26.8c0.4-5.3,1.3-15.3,1-22.3c-0.4-6.9-2-11.5-5.4-16.1c-6.7-9-16.1-14.7-28-16.8
			c-3.7-0.7-7.6-1-11.7-1c-6.8,0-14.2,1-22.1,2.8c-1.1,0.2-2.2,0.5-3.3,0.8c-0.7,0.2-1.4,0.4-2.1,0.6c-8.8,2.4-18.8,6-30,11.2
			c-8.2,3.8-16.5,7.9-24.7,12.1c-25.7,13.1-50.9,27.4-72.2,39.5c-16.9,9.6-31.5,17.9-43,23.7c0-0.1,0-0.1,0-0.2
			c0.2-16.5,3-47.4,4.5-59.2c0,0,0.5-2.5,0.6-3.6c0.3-3.1-0.4-5.4-0.5-5.8c-3.4-11.3-9.9-17.1-19.3-17.1c-8.2,0-17.3,4.4-24.5,8.6
			c-1.5,0.9-3,1.8-4.3,2.6c-2.4,1.5-5.3,3.4-8.5,5.5c-9.1,5.9-17.7,12.6-26.7,18.7c-8.7,5.9-17.6,11.3-27.7,14.9
			C95.6,377.4,83,378,78.3,378c-1.3,0-1.9,0-1.9,0l-2.4-0.1l1.1,1.3l0.2,0.2c0,0,0.4,0.5,1.1,1.2c1.5,1.7,5.5,6.2,10.5,11.4
			c0.2,0.2,0.4,0.4,0.6,0.6c0.3,0.3,0.5,0.6,0.8,0.8c0.5,0.5,1,1,1.5,1.6c0,0,0,0,0.1,0.1c2.8,2.9,5.8,5.9,8.7,8.6
			c0,0,0,0.1,0.1,0.1c0.5,0.5,1.1,1,1.6,1.5c0,0,0.1,0.1,0.1,0.1c0.1,0.1,0.3,0.2,0.4,0.4c9.3,8.6,17,12.8,20,14.2
			c0,0,0.1,0.1,0.1,0.1c-1.5,1.9-4.7,5.9-7.9,10.8c-3.1,4.7-9,12.4-14.2,19.2c-2.3,3-4.5,5.9-6.4,8.5c-1.2,1.6-2.6,3.1-3.9,4.5
			c-5.4,5.6-11,9.1-11.1,9.2l-3.1,1.9l3.5,0.1h0.2c1.8,0,12.1-0.3,34.3-5.9c24-6.1,30-14.7,36.4-19.3c-0.1,3.2-0.3,6.2-0.5,9
			c-1.1,12.3-2.4,30.7-2.4,30.8v0.1l0,0.1c0.1,0.7,2.7,17.3,16.9,25.9c5,3,11.9,4.6,20.1,4.6c11.5,0,30.9-3.1,58.6-17.6
			c31.2-16.5,56.9-30.9,77.7-42.5c33.2-18.6,57.2-32,78.7-40.1c7.5-2.8,14.4-4.6,20.8-5.5c0,0,0.1,0,0.1,0c0,2,0,4.5,0,7.5
			c0.1,8.3,0.1,20.1,0,32.8c-0.1,7.1-0.1,23.6-0.1,24.5c0,5.6,3.4,10.2,9.4,12.7c5,2.1,11.6,3.2,18.6,4.5c9.5,1.7,20.2,3.6,29.1,8.2
			c17.1,8.6,27.9,21.9,28,22l1.7,2.1l-0.1-2.8c0-0.2-0.8-17.1-5.6-33.1c-3.9-13.2-15.5-29.5-18.5-33.6c2.8-2.1,11.6-8.8,18.6-13.4
			C509.7,438.6,520.5,438.5,520.6,438.5z"/>
	</g>
	<g>
		<path class="st1" d="M487.4,350.4c-0.3-1.3-0.8-2.2-1.5-2.7c1.3-0.7,2.1-2.1,2.1-3.6c0-1.2-0.5-2.3-1.2-3c-1-0.9-2.4-1.3-4.4-1.3
			c-1.2,0-2.6,0.1-3.5,0.3l-0.4,0.1v14.7h2.7v-6.1h1.3c1.4,0.1,2,0.7,2.4,2.4c0.4,2,0.8,3.1,1,3.5l0.1,0.2h2.9l-0.3-0.7
			C488.2,353.7,487.8,352,487.4,350.4z M482.6,346.5h-1.4v-4.3c0.3,0,0.7-0.1,1.4-0.1c1.9,0,2.8,0.7,2.8,2.2
			C485.3,345.6,484.3,346.5,482.6,346.5z M482.9,335.8c-6.4,0-11.7,5.2-11.7,11.7c0,6.4,5.3,11.7,11.7,11.7
			c6.5,0,11.7-5.2,11.7-11.7C494.6,341.1,489.3,335.8,482.9,335.8z M482.9,357.4c-5.4,0-9.9-4.4-9.9-9.9c0-5.5,4.5-9.9,9.9-9.9
			c5.5,0,10,4.5,10,9.9C492.8,353,488.4,357.4,482.9,357.4z"/>
	</g>
	<g>
		<path class="st2" d="M455.6,428.5c-0.6-1.4-6.8-14.9-28.5-14.9c-2,0-4,0.1-6,0.3c0,1.9,0,4.4,0.1,7.3v0.2
			c0.1,10.8,0.2,28.5-0.2,46c1.1-1.7,2.5-3.2,4.2-4.5c0.5-0.4,1-0.7,1.5-1.1c0.1-0.1,0.3-0.1,0.4-0.2l0.6-0.4
			c0.2-0.1,0.4-0.2,0.7-0.4c4.7-2.4,10-3.4,13.9-4.1l0.3-0.1c1.1-0.2,2.1-0.4,3.1-0.5l0.4-0.1c4.1-0.6,6.9-1.1,8.7-3.1
			c1.8-2,2.6-5.3,2.4-10.6C456.6,435.6,456.1,431.4,455.6,428.5z M192.4,370.3l-0.4,0.2c-18.8,7.6-44.6,18.1-42.4,32.8
			c0.3,2.4,0.5,4.4,0.7,6.6l0.1,0.8c0.1,0.4,0.1,1,0.1,1.4l0,0.4c0.1,0.1,0.1,0.2,0.2,0.3l0.2,0.3c0.2,0.3,0.4,0.5,0.6,0.8
			c0.2,0.2,0.4,0.4,0.6,0.6l0.1,0.1c0.1,0.1,0.2,0.2,0.3,0.3l0.3,0.2c0.3,0.3,0.7,0.6,1.1,0.9l0.4,0.2c0.5,0.3,1.1,0.7,1.6,1
			l0.3,0.2c1.5,0.8,3.3,1.4,5.2,1.8c0.2,0.1,0.5,0.1,0.8,0.1l0.3,0.1c0.6,0.1,1.3,0.2,2,0.3c0.6,0.1,1.2,0.2,1.8,0.2l0.5,0
			c1.2,0.1,2.2,0.2,3.3,0.2c7.9,0,17.6-1.8,28.9-5.4c3.8-1.2,8.8-3.4,15.5-6.7c0.1-14.1,2.2-38.8,3.7-52.7c-2.3,2.8-5.5,5.4-9.5,7.6
			C204.6,365.3,198.7,367.8,192.4,370.3z"/>
	</g>
	<g>
		<path class="st1" d="M147.6,413.8l-0.1-0.2l-0.1-0.9l0-0.3c-0.1-0.5-0.1-0.9-0.1-1.4l0-0.3c0-0.2,0-0.4,0-0.5l-0.2-1.9
			c-0.1-1.4-0.3-2.8-0.5-4.4c-0.1-0.5-0.1-0.9-0.1-1.4l0-0.5c0-2.4,0.4-4.6,1.3-6.7c4.9-11.5,22.6-19.5,40.3-26.8l3.5-1.4
			c6.2-2.5,12-4.9,15.9-7.1c0.1-0.1,0.3-0.2,0.4-0.2c0.2-0.1,0.3-0.2,0.4-0.2c5.7-3.3,9.4-7.3,10.9-11.7l0.1-0.5
			c1.1-3.6,0.4-6.5,0.2-7.4l-0.1-0.2c-3-10.2-8.6-15.2-17-15.2c-9.5,0-20.4,6.2-27.7,10.9c-2.2,1.4-4.9,3.1-8.5,5.5
			c-5.3,3.4-10.5,7.2-15.5,10.8c-12.1,8.7-24.7,17.8-39.3,23c-13.8,4.9-25.7,5.9-31.3,6c3.4,3.8,13.2,14.5,22.3,22.9
			c11.5,10.6,20.6,14.4,20.7,14.4l2.1,0.9l-1.6,1.8c0,0.1-4.3,5-8.7,11.6c-3.1,4.7-8.8,12.2-14.3,19.4c-2.3,3-4.5,5.9-6.4,8.5
			c-3.5,4.7-7.8,8.5-10.8,10.8c5-0.5,14.1-1.9,28.3-5.5c21.3-5.4,29.9-13.5,34.5-17.8c0.7-0.7,1.4-1.3,1.9-1.8
			C148.3,437.8,148.4,419.1,147.6,413.8z M478.6,459.4l-1.1-1.5l1.4-1c0,0,11-8.5,19.6-14.1c7-4.6,14.1-6.2,18.4-6.8
			c-5.1-4.8-16.8-15-28.9-21c-8.9-4.5-23.4-9.7-30.1-11.9c0,1,0,2.1,0,3.3c0,5.9,0,12.9,0.5,20.9v0.1c0,0,0,0,0,0l0.1,0.3
			c0.5,3.2,1.1,7.6,1.4,14.6c0.7,15.1-6.3,16.1-13.7,17.2l-0.3,0c-1,0.1-2.1,0.3-3.1,0.5l-0.3,0c-8.7,1.7-21.8,4.2-21.8,18.5
			c0,2.1,0.6,4,1.8,5.7c1.4,1.9,3.4,3.4,6,4.4c4.9,2,11.6,3.2,18.2,4.4c9.6,1.7,20.5,3.7,29.7,8.3c1.3,0.7,2.7,1.4,4.4,2.4l0.3,0.2
			c0.1,0,0.2,0.1,0.3,0.2c9.7,5.8,16.9,12.5,20.9,16.7c-0.5-5.7-1.9-17-5.1-27.8C493.2,479.3,480,461.4,478.6,459.4z M425.8,410.4
			c0.2,0,0.4,0,0.5,0c0.3,0,0.5,0,0.7,0c4.6,0,9,0.6,12.9,1.8c7.6,2.3,12.3,6.4,15.1,9.9l0-0.2c0-0.7-0.1-1.4-0.1-2.1
			c-0.1-1.6-0.1-3.1-0.1-4.6c-0.1-3.1,0-6,0-8.5v-4.9c0-0.5,0-1,0-1.5l0-0.6h0.1l0-0.4c0.1-9.4,0.5-18.3,1.2-26.5
			c0.3-3.6,1.3-14.5,0.9-21.9c-0.4-6.3-1.7-10.4-4.8-14.5c-8.3-11.2-21.1-16.9-37.9-16.9c-15.6,0-34.5,5.1-56.1,15
			c-34.2,15.8-70.6,36.5-97.1,51.7c-26.4,15-49.2,28-61.4,31.8c-11.5,3.7-21.5,5.5-29.7,5.5c-10.2,0-16-2.9-19.2-5.7
			c0.5,8.6,0.3,23.4,0.2,29.7l0,1l-0.1,0c-0.1,3.4-0.3,6.6-0.6,9.5c-0.9,10.7-2,26.1-2.4,30.5c0,0.2,0.3,1.8,1,4
			c1.6,5,5.6,14.3,14.6,19.8c4.7,2.8,11.2,4.3,19,4.3c11.2,0,30.3-3,57.6-17.4c28-14.8,51.1-27.6,72.4-39.5l5.3-3
			c33.2-18.6,57.3-32,78.9-40.2c7.5-2.8,14.7-4.7,21.5-5.7c1.2-0.2,2.5-0.3,3.9-0.4C423.4,410.5,424.6,410.4,425.8,410.4z"/>
	</g>
	<g>
		<path class="st0" d="M198.7,427.1c-7.2,0-14.8,3.2-19.2,6.4c-13.5,9.8-18.5,24.4-18.7,29.7c0,0.6,0,1.9,0.1,2.8l0.2,1.4l0.9-1.1
			c0.4-0.5,0.8-1.1,1.2-1.8c0.3-0.5,0.6-1.3,1-2.2l0.2-0.3c2.2-5.3,6.5-15.1,15.9-21.4c3.5-2.3,7-3.4,10.5-3.4
			c6.1,0,11.4,3.7,14,9.7c4.6,11,4.1,26-1.1,35.7c-2.9,5.5-7.1,9-12.2,10c-2.7,0.6-4.7,0.2-5.8-0.9c-1-1-0.9-2.3-0.9-2.4
			c0.3-3.5,1.7-21.2,1.9-25.4c0.1-4.5-3.4-10.8-4.5-11.5l-0.1-0.1c-0.3-0.1-0.5-0.2-0.8-0.4c-0.4-0.2-0.7-0.3-1-0.3
			c-0.4,0-0.7,0.2-0.9,0.4c-1.1,0.7-4.8,2.7-6.7,3.8l-1.2,0.7c-0.4,0.2-0.7,0.7-0.8,1.2c-0.1,0.5,0.1,1,0.3,1.2l0.2,0.2l0.3,0
			c0.5-0.1,0.7-0.1,0.7-0.1l0.4,0.1l0.1,0.1c0,0,2.6,4,2.4,7.1c-0.1,0.6-0.1,1.6-0.1,2.9c0,5.1-0.1,14.5-2,19.3
			c-2.7,6.8-7.2,11.5-7.4,11.7c-0.6,0.6-0.7,1.5-0.5,2l0.2,0.6l0.6-0.2c0.1,0,0.2-0.1,0.3-0.2c0.7-0.5,2.4-1.8,4.2-3.3
			c2.8-2.3,4.8-3.9,5.5-4.1c0.8-0.3,1.9-0.6,3.1-0.6c1.1,0,2,0.3,2.8,0.9c2,1.4,5.2,2.6,7.7,2.8c1.5,0,9.4-2.5,16.6-10.2
			c5.9-6.2,12.8-17.4,11.9-35.9C217.2,435.6,210.5,427.1,198.7,427.1z M225.2,434.7c0.5,0.2,0.8,0.3,1.1,0.3c0.3,0,0.7-0.2,1.3-0.9
			c0.5-0.6,2.6-2.6,4.4-4.4l0.5-0.5c1.7-1.6,2.7-2.6,2.8-2.9c0.4-0.5,0.8-1.2-0.2-2.2c-1.1-1.1-5.1-4-5.7-4.4
			c-0.3-0.1-0.7-0.2-1.1-0.2c-0.5,0-0.9,0.2-1.1,0.5c-0.4,0.5-0.8,1-1.5,1.8l-0.3,0.3c-0.6,0.6-1.3,1.4-2.2,2.4
			c-1.4,1.6-2.3,2.4-3,2.9l-0.2,0.1c-0.3,0.3-0.5,0.5-0.7,0.7c-0.4,0.4-1,1.2-0.2,1.8C220.4,431.1,224,434.1,225.2,434.7z
			 M235.5,476.7c-1.2-1.2-1.7-3.2-1.6-6c0.2-6.4,0.8-24.2,0.8-26.6c0-2.4-2.6-7.4-4.9-7.9c-2.3-0.4-4.6-0.2-5.8,0.5
			c-1.2,0.6-3.9,1.8-4.8,2.2l-0.3,0.1c-0.4,0.1-0.7,0.3-0.8,0.5l-0.2,0.3l0.1,0.3c0.2,0.5,1,1,1.6,1c1,0,3.3,3.1,3.5,5.7
			c0.1,1.6-0.3,9.6-0.7,16.6l-0.2,3.4c-0.2,3-0.3,5.5-0.3,6.2l0,1c0,2.2-0.1,4.2,1.9,6c1.8,1.6,3.7,3.1,5.6,3.1
			c0.5,0,0.9-0.1,1.4-0.2c2.5-1,5.9-2.5,7.2-3.3c0.6-0.4,0.7-0.9,0.6-1.3c-0.1-0.3-0.4-0.5-0.8-0.5
			C237.6,477.8,236.5,477.7,235.5,476.7z M369.7,356.8c0.5,0.2,0.8,0.3,1.1,0.3c0.4,0,0.8-0.2,1.4-0.9c0.3-0.4,1.3-1.4,4.6-4.7
			l0.7-0.7c1.4-1.4,2.3-2.3,2.4-2.4c0.4-0.5,0.8-1.2-0.2-2.2c-1-1.1-4.9-4-5.6-4.3c-0.4-0.2-0.8-0.3-1.2-0.3c-0.6,0-0.9,0.3-1.1,0.5
			c-0.4,0.6-0.9,1.1-1.7,1.9c-0.6,0.6-1.3,1.4-2.3,2.5c-1.4,1.6-2.4,2.4-3.1,3c-0.3,0.3-0.6,0.5-0.8,0.8c-0.4,0.5-0.9,1.1-0.2,1.8
			C365,353.4,368.6,356.3,369.7,356.8z M382.4,400c-0.5-0.1-1.4-0.2-2.4-1.2c-1.2-1.2-1.7-3.2-1.6-6c0.2-4.5,0.8-23.9,0.8-26.7
			c0-2.3-2.6-7.4-4.8-7.9c-2.2-0.4-4.6-0.3-6,0.4c-1.3,0.7-5,2.3-5.1,2.3c-0.4,0.2-0.6,0.3-0.7,0.5l-0.2,0.2l0.1,0.3
			c0.2,0.6,0.9,1,1.7,1c0.9,0,3.2,3,3.4,5.7c0.1,1.6-0.3,9.5-0.7,16.5l0,0.5c-0.2,3.6-0.5,8-0.5,9.1v1c-0.1,2.2-0.1,4.3,1.9,6.1
			c1.7,1.5,3.7,3.1,5.7,3.1c0.5,0,0.9-0.1,1.3-0.3c2.5-1,5.8-2.4,7.1-3.2c0.8-0.5,0.7-1.1,0.7-1.2C383.1,400.1,382.7,400,382.4,400z
			 M267.4,417c-1.9-1.8-4.1-2.9-6-2.9c-0.9,0-1.6,0.2-1.9,0.7c-0.4,0.5-1.5,1.6-2.6,2.7l-0.6,0.6c-1.2,1.2-2.3,2.4-2.7,2.9
			c-0.4,0.5-0.7,1.3-0.5,1.8c0.2,0.3,0.6,0.5,1.2,0.5c2.2,0.1,3.8,0.4,5,3.2c1.2,2.8,1.9,7.8,0,12.9c-1.9,5.1-4,9.3-4.1,9.4
			l-0.3,0.7l-0.2-0.7c-0.1-0.1-4.2-17.1-5.1-19.7c-0.9-2.7-1.6-4.4-3.1-5.1c-0.3-0.1-0.5-0.3-0.8-0.4l-0.3,0.6l0.1-0.6
			c-1.2-0.6-2.2-1-3.3,0.1c-1.6,1.6-7.9,7.9-8,7.9c-0.3,0.3-0.4,0.7-0.3,1.1c0.2,0.4,0.6,0.7,1,0.8l0.3,0c0.9,0.1,1.9,0.2,2.6,1.9
			c0.8,2,6.2,21,8.6,35.2c0.2,1.3,0.8,2.5,1.4,2.8l0.3,0.2l0.3-0.2c0.3-0.2,0.6-0.6,0.9-1.3c0.1-0.4,0.5-1.1,0.9-2.2l1.9-4.6
			c4.6-10.6,14.9-34.6,15.6-36.6C268.7,426.6,270.9,420.4,267.4,417z M412.2,340.6c-1.8-1.8-4.1-2.9-6-2.9c-0.9,0-1.6,0.2-1.9,0.6
			c-0.5,0.5-1.6,1.7-2.8,3c-1.3,1.4-2.7,2.7-3,3.2c-0.4,0.6-0.7,1.3-0.5,1.8c0.1,0.3,0.6,0.5,1.2,0.6c2.1,0.1,3.8,0.4,5,3.2
			c1.2,2.7,2,7.7,0,12.9c-2,5.1-4,9.3-4,9.4l-0.3,0.7l-0.2-0.8c0-0.1-0.2-0.6-0.4-1.5c-1.1-4.4-3.9-16-4.7-18.2
			c-0.9-2.6-1.6-4.4-3.1-5.1c-0.3-0.2-0.6-0.3-1-0.5c-1.2-0.6-2.2-0.9-3.2,0.1c-1.7,1.6-7.9,7.9-8,7.9c-0.4,0.4-0.3,0.8-0.3,1
			c0.1,0.4,0.5,0.8,1,0.8l0.3,0c0.8,0.1,1.9,0.2,2.6,1.8c0.8,1.8,6.2,21,8.6,35.3c0.2,1.4,0.8,2.6,1.5,2.8l0.3,0.1l0.2-0.1
			c0.3-0.2,0.6-0.6,0.9-1.3l5.2-12.3c5.3-12.4,12.6-29.4,13.2-31.1C414,348.8,415.3,343.7,412.2,340.6z M301.6,444.2l-0.3-0.1
			c-0.8,0-3.7-2.1-3.7-8.1c0-3.5,0.1-10.3,0.1-15.8c0-3.9,0.1-7.2,0.1-8.4c0-2.8-2.8-8.7-5.1-10.6c-1.1-0.9-2.8-2-5.1-2
			c-1.2,0-2.5,0.3-3.7,0.9c-2.7,1.4-6.4,3.5-8.3,5.8c-1.5,1.9-2.4,4.8-2.4,5.9l0,1l0.9-0.5c0.2-0.1,0.5-0.2,0.7-0.4l0.3-0.4
			c1.1-1.3,3.3-3.5,4.4-4.1l0.4-0.2c0.5-0.3,1-0.5,1.6-0.5c0.6,0,1.2,0.3,1.9,1c1.4,1.5,3,4.7,3.2,6.7c0.1,1.1,0,2.6-0.1,4.3l0,0.1
			l-0.1,0.1c-0.8,0.4-18.8,10.6-18.2,23.3c0.5,11,6.4,13.9,9.8,13.9c0.3,0,0.8,0,1.3-0.2c6.3-2.1,7.1-9.9,7.2-10.8l0.1-1l0.4,0.9
			c0,0.1,2.6,4.9,6,4.9c0.4,0,0.9-0.1,1.4-0.3c2.7-1.1,4.6-2.3,6-3.1c0.7-0.5,1.2-0.8,1.7-1l0.7-0.3l-0.4-0.6
			C302,444.6,301.8,444.3,301.6,444.2z M286.5,424.3c0,1.1,0,10.5-0.1,12.4c0,1.1-0.4,2.1-1,3l-0.1-0.1l0,0.3
			c-0.3,0.6-0.8,1.1-1.4,1.6c-0.9,0.8-2.2,1.9-3.4,1.9c-1.5,0-2.3-1.5-2.5-4.3c-0.6-7.8,4.3-11.9,6-13.3l0.2-0.2
			c0.1-0.1,0.2-0.2,0.3-0.3c0.6-0.7,1.6-1.3,1.6-1.3l0.4-0.2V424.3z M444.4,382.8c-0.1-0.2-0.3-0.4-0.5-0.6l-0.3-0.1
			c-0.8-0.1-3.9-4.9-3.9-10.8c0-3.4,0.1-9.9,0.1-15.4v-0.4c0.1-3.9,0.1-7.2,0.1-8.4c0-2.8-2.8-8.7-5.1-10.6c-1.1-0.9-2.8-2-5.1-2
			c-1.2,0-2.5,0.3-3.6,0.9c-3,1.5-6.6,3.6-8.3,5.8c-1.5,1.9-2.3,4.8-2.4,5.9l0,1.1l1-0.5c0.2-0.1,0.4-0.3,0.6-0.4l0.4-0.5
			c1.5-1.7,3.3-3.5,4.4-4l0.5-0.2c1.1-0.6,2.2-0.8,3.4,0.5c1.4,1.5,3.1,4.7,3.2,6.7c0.1,2-0.1,4.3-0.1,4.3l0,0.1l-0.2,0.1
			c-0.2,0.1-18.8,10.3-18.2,23.2c0.5,11,6.4,13.9,9.8,13.9c0.5,0,0.9-0.1,1.3-0.2c6.2-2.1,7-9.9,7.1-10.8l0.1-1l0.5,0.9
			c0,0,2.6,4.9,6,4.9c0.4,0,0.9-0.1,1.4-0.3c3-1.2,5.1-1.2,6.5-1.2c0.5,0,0.8,0,1.1-0.1l0.9-0.1L444.4,382.8z M428.7,359.6
			c0,3.9,0,10.9-0.1,12.4c-0.1,1.1-0.4,2.1-1,3.1l-0.1-0.1l0,0.3c-0.4,0.5-0.8,1.1-1.4,1.6c-1,0.9-2.3,1.9-3.4,1.9
			c-1.5,0-2.3-1.5-2.5-4.4c-0.6-7.8,4.3-11.9,6.1-13.4c0.2-0.1,0.3-0.3,0.4-0.4c0.6-0.7,1.4-1.1,1.6-1.3l0.4-0.2V359.6z
			 M335.7,366.8c-1.8-0.8-3.4-0.9-5.1-0.2c-1.8,0.7-10.5,7.3-15.1,14c-0.7,1-1,1.8-1.1,2.2L314,385l1.5-1.7c1.5-1.6,6.7-5.7,8.5-6.6
			c0.6-0.3,1.4-0.5,2.2-0.5c2.4,0,8.5,1.5,11.5,15.3c4.3,18.9-4.7,33.5-6.9,35.2c-0.6,0.5-1.7,1.3-3.1,1.4l-0.4,0
			c-2.6,0-11.2-1.4-14.9-19c-7.5-35.2,13.1-42,15.5-42.7c0.4-0.2,1-0.6,1-1.4v-0.4l-0.3-0.2c-0.2-0.1-0.9-0.5-2.2-0.5
			c-0.7,0-1.8,0.1-3,0.7c-22.8,11.3-21.8,37.5-21.5,46.1c0.3,6.3,5.1,24.4,17.7,24.4c1.8,0,3.8-0.4,5.8-1.2
			c7.6-2.9,14.1-10,17.9-19.4c2.7-6.6,4.2-14.5,4.4-23.6C348.5,372.4,336.3,367,335.7,366.8z M365.6,408.3l-0.1-0.1l-0.2-0.1
			c-0.1-0.1-0.3-0.1-1-0.1c-2.1-0.1-3.3-5.3-3.6-8.3c-0.2-2.1,0.2-14.9,0.5-24.2c0.2-6.6,0.4-13.4,0.4-14.9c-0.1-2.8-0.8-5-2.5-7.3
			c-1.3-1.8-3-2.8-4.8-2.8c-1,0-2.1,0.3-2.9,1c-0.5,0.3-1,0.7-1.5,1.1l-0.1,0.1c-1.3,1-2.9,2.2-4.4,3c0,0-0.4,0.4-0.5,0.8l0,0.3
			l0.2,0.2c0.5,0.7,0.9,0.8,1.5,0.8c0.4,0.1,0.8,0.1,1.2,0.5c0.8,1,2.4,4,2.2,8.2c-0.1,1.6-0.1,5.9-0.1,11l0,3.8
			c0,7.3-0.1,16.1-0.3,20.3c-0.2,6.3,0.7,8.7,2.6,11.1c1.1,1.4,2.8,2.2,4.5,2.2c0.7,0,1.3-0.2,1.9-0.5c1.5-0.9,5.2-3.1,7.2-4.6
			c0.6-0.5,0.4-1,0.3-1.2C365.7,408.4,365.6,408.3,365.6,408.3z"/>
	</g>
</g>
</svg>
