<svg id="Layer_1" data-name="Layer 1" xmlns="http://www.w3.org/2000/svg" viewBox="0 0 551.73 260.72"><defs><style>.cls-1{fill:none;stroke:#ed1c24;stroke-miterlimit:10;stroke-width:1.7px;}.cls-2{fill:#fff;}.cls-3{fill:#94070a;}.cls-4{fill:#ed1c24;}</style></defs><title>diva_oliva</title><path class="cls-1" d="M521.74,83.75a11.52,11.52,0,1,0,11.52,11.52A11.51,11.51,0,0,0,521.74,83.75Z" transform="translate(-22.41 -57.43)"/><path class="cls-1" d="M518.36,102.44V89.2h4.35a3.18,3.18,0,1,1,0,6.36h-4.35m3.57,0,4,6.59" transform="translate(-22.41 -57.43)"/><path class="cls-2" d="M565.54,207.63l8.61-1.13-6.36-5.9c-7.16-6.63-21.39-18.86-36.23-26.27-12.45-6.23-33.12-13.39-37.14-14.76l-.91-.31v-.44c.16-11.47.67-22.24,1.5-32,.77-8,1.59-19.27,1.16-27.24-.48-8.46-2.37-14.22-6.58-19.91-11-14.77-27.66-22.26-49.54-22.26-19.69,0-43.28,6.3-70.16,18.72-41.2,19.08-85.15,44-117.26,62.28l-1.83,1c-19,10.83-36.47,20.75-50.52,28,.28-16,2.47-42.8,4.47-61.75l.89-8.36,0-.1.19-.61a19.68,19.68,0,0,0,.18-11.5l-.2-.47c-4.25-14.05-12.54-21.17-24.63-21.17-12.66,0-26.58,7.94-35.92,13.9-2.66,1.65-6,3.8-10.48,6.75-6.53,4.24-12.9,8.83-19.19,13.35C101.09,108,86.09,118.77,68.82,124.9A123.08,123.08,0,0,1,31.89,132l-8.85.24L29,138.79c5.74,6.35,16.93,18.47,27.46,28.2a108.21,108.21,0,0,0,24.05,17.25c-2,2.51-5.64,7.13-9.28,12.62s-10.35,14.3-16.81,22.8l-.49.63c-2.79,3.66-5.5,7.22-7.81,10.35A67.17,67.17,0,0,1,33.71,243l-11.3,8.77,14.22-1.5c6.44-.68,17.75-2.41,35.09-6.8,25.37-6.41,36.53-15.81,42.64-21.52-.11,2.74-.21,5.49-.45,8.17-1.31,15.09-2.87,37.08-2.89,37.29l0,.46.07.46a41.13,41.13,0,0,0,1.38,5.51c2.11,6.71,7.46,19.06,19.61,26.36,6.36,3.82,15.1,5.83,25.25,5.83,14.13,0,38.12-3.76,72.18-21.71,35.05-18.5,64-34.57,88.34-48.19L325.3,232c39.94-22.31,68.81-38.43,94.74-48.2a121.82,121.82,0,0,1,24-6.47c0,2.26,0,5.07.06,8.63.08,12.95.18,34.62-.3,55.75L443.47,256l.33-.51a15.75,15.75,0,0,0,3,9.29,20.71,20.71,0,0,0,9,6.75c6.46,2.67,15.24,4.22,23.24,5.63,11.34,2,24.2,4.36,34.88,9.75,1.56.78,3.13,1.64,5.12,2.82l.67.38a118.44,118.44,0,0,1,24.59,19.66l8,8.41-1-11.58a181.16,181.16,0,0,0-6.4-34.69c-4.43-15-17.16-33.55-22.36-40.75,3.74-2.84,13.87-10.46,22.17-15.88A50.08,50.08,0,0,1,565.54,207.63Z" transform="translate(-22.41 -57.43)"/><path class="cls-3" d="M491.91,211.36a147.21,147.21,0,0,0-1.65-17c-.74-1.7-8.33-18.13-34.81-18.13-2.37,0-4.85.16-7.34.4,0,2.33,0,5.34.06,8.84v.2c.07,13.15.2,34.78-.3,56.1a21.88,21.88,0,0,1,5.14-5.47c.6-.47,1.21-.86,1.83-1.28.15-.1.31-.18.47-.27l.75-.45.82-.43c5.73-3,12.2-4.18,16.95-5.05l.31-.06c1.33-.25,2.58-.45,3.79-.61l.51-.11c5-.7,8.37-1.36,10.59-3.76S492.2,217.83,491.91,211.36Z" transform="translate(-22.41 -57.43)"/><path class="cls-3" d="M189.13,114.5c-5,2.79-12.31,5.78-20,8.94l-.56.21c-22.91,9.29-54.33,22-51.76,40.06.41,2.9.65,5.41.89,8.07l.08.95c.09.55.11,1.15.16,1.74l0,.48.21.33.29.37c.24.33.45.61.73.93s.43.49.65.72l.16.19c.14.11.24.26.4.38l.31.27a15.53,15.53,0,0,0,1.4,1.16l.41.29a16.78,16.78,0,0,0,2,1.17l.42.26a27.31,27.31,0,0,0,6.4,2.21c.29.08.61.13.94.21l.37.06c.78.14,1.58.27,2.46.39s1.46.19,2.25.27l.64,0c1.41.11,2.63.2,4,.2,9.6,0,21.4-2.2,35.24-6.55a142.06,142.06,0,0,0,18.9-8.23c.13-17.22,2.73-47.31,4.52-64.32A39.36,39.36,0,0,1,189.13,114.5Z" transform="translate(-22.41 -57.43)"/><path class="cls-4" d="M115.19,215.68c.14-10,.37-32.79-.74-39.19l-.08-.2,0-1.08-.07-.41c-.07-.56-.13-1.12-.15-1.69l0-.39c0-.22,0-.45-.07-.68l-.23-2.36c-.19-1.71-.37-3.46-.64-5.32a9.85,9.85,0,0,1-.1-1.67v-.61a19.19,19.19,0,0,1,1.58-8.2c6-14.06,27.58-23.84,49.21-32.65l4.25-1.73c7.53-3,14.62-5.94,19.41-8.62l.48-.31.47-.27c7-4.07,11.45-8.87,13.31-14.23l.2-.64a15.52,15.52,0,0,0,.19-9l-.12-.24c-3.71-12.5-10.49-18.58-20.82-18.58-11.52,0-24.81,7.57-33.78,13.28-2.63,1.63-6,3.76-10.4,6.7-6.45,4.18-12.78,8.74-18.92,13.16-14.78,10.65-30.07,21.69-47.91,28A127.61,127.61,0,0,1,32,136.06c4.15,4.6,16.06,17.64,27.2,27.94,14,13,25.13,17.58,25.23,17.6l2.65,1.1-1.91,2.25a159.91,159.91,0,0,0-10.58,14.17c-3.83,5.75-10.75,14.83-17.45,23.65-2.78,3.65-5.48,7.2-7.8,10.32a71.34,71.34,0,0,1-13.13,13.15c6.12-.65,17.24-2.32,34.52-6.7,26-6.58,36.49-16.41,42.08-21.71C113.7,217,114.48,216.27,115.19,215.68Z" transform="translate(-22.41 -57.43)"/><path class="cls-4" d="M547.29,306.93a177.36,177.36,0,0,0-6.24-33.9c-4.91-16.64-21-38.48-22.78-40.92l-1.32-1.8,1.64-1.25c.08-.06,13.47-10.39,23.94-17.22A54.49,54.49,0,0,1,565,203.59c-6.26-5.8-20.5-18.24-35.27-25.62-10.89-5.45-28.54-11.79-36.64-14.55,0,1.21,0,2.54,0,4,0,7.24,0,15.77.6,25.47l0,.14h0l.08.37a148.11,148.11,0,0,1,1.76,17.74c.82,18.39-7.67,19.61-16.69,20.95l-.33,0c-1.24.19-2.53.4-3.81.62l-.32.06c-10.67,2-26.58,5-26.58,22.57a11.78,11.78,0,0,0,2.25,7,16.56,16.56,0,0,0,7.27,5.39c6,2.46,14.19,3.93,22.14,5.34,11.7,2.11,25,4.47,36.26,10.16,1.63.82,3.29,1.72,5.37,3l.31.16a2.39,2.39,0,0,1,.37.21A122.65,122.65,0,0,1,547.29,306.93Z" transform="translate(-22.41 -57.43)"/><path class="cls-4" d="M489.41,158.75c.17-11.45.66-22.32,1.52-32.3.43-4.37,1.64-17.68,1.15-26.62-.44-7.71-2.08-12.68-5.78-17.71C476.12,68.44,460.56,61.5,440,61.5c-19.09,0-42.12,6.17-68.44,18.34-41.72,19.32-86.07,44.58-118.53,63-32.19,18.33-60,34.17-74.84,38.89-14.07,4.45-26.25,6.71-36.21,6.71-12.39,0-19.48-3.54-23.44-7,.6,10.44.35,28.59.24,36.25l0,1.26-.17,0c-.09,4.2-.33,8.06-.64,11.53-1.15,13-2.5,31.8-2.88,37.23a36.28,36.28,0,0,0,1.25,4.92c1.93,6.17,6.8,17.47,17.8,24.09,5.71,3.42,13.72,5.25,23.16,5.25,13.7,0,37-3.7,70.28-21.24,34.21-18,62.35-33.66,88.25-48.14l6.46-3.62c40.57-22.67,69.87-39.07,96.31-49A124.36,124.36,0,0,1,444.8,173c1.45-.2,3-.37,4.69-.51,1.52-.14,3-.23,4.45-.26l.64,0c.32,0,.62,0,.88,0a53.25,53.25,0,0,1,15.82,2.23,36.77,36.77,0,0,1,18.45,12v-.25c0-.85-.09-1.68-.13-2.52-.06-1.91-.09-3.78-.17-5.56,0-3.84,0-7.32,0-10.32v-6c0-.6,0-1.3,0-1.8l0-.77h.07Z" transform="translate(-22.41 -57.43)"/><path class="cls-2" d="M224.14,254.13a4.12,4.12,0,0,1-2.88-1.32c-1.43-1.47-2.09-3.92-2-7.31.29-7.69,1-29.3,1-32.31s-3.12-9-5.89-9.57-5.6-.31-7.11.57c-1.39.73-4.73,2.18-5.81,2.63l-.37.17a1.71,1.71,0,0,0-1,.64L200,208l.16.34a2.32,2.32,0,0,0,2,1.15c1.25,0,4,3.73,4.23,6.91.14,2-.37,11.67-.84,20.22l-.22,4.05c-.21,3.7-.36,6.63-.36,7.54l0,1.25c-.06,2.64-.1,5.17,2.32,7.35,2.12,2,4.41,3.79,6.74,3.79a4.07,4.07,0,0,0,1.67-.32,67.17,67.17,0,0,0,8.7-3.92,1.41,1.41,0,0,0,.76-1.63A1,1,0,0,0,224.14,254.13Zm35.76-73.79c-2.28-2.16-5-3.46-7.22-3.46a3.1,3.1,0,0,0-2.35.8c-.52.61-1.78,1.91-3.11,3.27l-.73.74c-1.49,1.52-2.86,2.95-3.26,3.49a2.42,2.42,0,0,0-.63,2.2,1.66,1.66,0,0,0,1.47.65c2.6.19,4.6.54,6.1,3.89a21.8,21.8,0,0,1,0,15.63c-2.38,6.16-4.9,11.34-4.93,11.41l-.39.81-.23-.88c0-.18-5-20.71-6.14-23.88s-1.94-5.35-3.8-6.15c-.35-.15-.64-.31-1-.49l-.33.68.12-.8c-1.49-.75-2.66-1.19-4,.09-2,1.9-9.63,9.55-9.64,9.58a1.26,1.26,0,0,0-.31,1.3,1.55,1.55,0,0,0,1.18,1l.35,0a3.27,3.27,0,0,1,3.14,2.22c1,2.38,7.56,25.44,10.44,42.77.24,1.62,1,3.09,1.71,3.4l.37.19.34-.21a4,4,0,0,0,1.06-1.52c.15-.44.56-1.34,1.11-2.67l2.38-5.55c5.58-12.89,18.06-42,18.94-44.35S264.16,184.49,259.9,180.35Zm125.25-73a3.08,3.08,0,0,0,1.36.43c.52,0,1-.33,1.62-1.06.36-.43,1.64-1.77,5.6-5.65l.81-.77c1.69-1.72,2.76-2.77,2.94-3,.48-.56,1-1.43-.19-2.7a46.11,46.11,0,0,0-6.85-5.21,3.64,3.64,0,0,0-1.46-.33,1.53,1.53,0,0,0-1.3.63c-.48.67-1.11,1.29-2,2.27-.75.77-1.62,1.74-2.82,3.06a35.46,35.46,0,0,1-3.72,3.69,10,10,0,0,0-1,.93c-.43.58-1.08,1.37-.22,2.15A58,58,0,0,0,385.15,107.36ZM208.74,201.82a3,3,0,0,0,1.35.39c.43,0,.87-.16,1.61-1.06.61-.71,3.15-3.2,5.34-5.37l.62-.62c2-2,3.23-3.2,3.45-3.44.51-.61.93-1.43-.23-2.65a51.72,51.72,0,0,0-7-5.27,4.22,4.22,0,0,0-1.35-.28,1.56,1.56,0,0,0-1.35.64c-.49.61-1.05,1.25-1.82,2.13l-.32.32c-.71.74-1.54,1.65-2.64,2.9a39.12,39.12,0,0,1-3.58,3.56l-.19.16a9.63,9.63,0,0,0-.87.83c-.46.56-1.18,1.41-.29,2.17A60.22,60.22,0,0,0,208.74,201.82Zm-32.18-9.21c-8.64,0-17.91,3.9-23.25,7.74-16.38,11.89-22.42,29.62-22.65,36a26,26,0,0,0,.08,3.39l.25,1.73,1.07-1.35a16.4,16.4,0,0,0,1.44-2.2c.37-.65.77-1.56,1.26-2.7l.18-.44c2.75-6.41,7.9-18.34,19.35-25.88a23.31,23.31,0,0,1,12.76-4.15c7.38,0,13.84,4.54,16.92,11.83,5.53,13.33,5,31.55-1.26,43.31-3.57,6.73-8.7,10.92-14.83,12.2-3.27.66-5.7.28-7-1.14a4.06,4.06,0,0,1-1.11-2.93c.35-4.25,2.13-25.64,2.29-30.82.18-5.48-4.11-13.15-5.47-14l-.16-.09a7.41,7.41,0,0,1-1-.46,2.36,2.36,0,0,0-1.2-.41,2.11,2.11,0,0,0-1.11.43c-1.38.89-5.81,3.34-8.19,4.63l-1.46.81a1.91,1.91,0,0,0-1,1.5,1.6,1.6,0,0,0,.43,1.48l.24.22.32-.07c.57-.1.87-.1.88-.12l.47.09.06.1s3.13,4.87,3,8.6c-.07.71-.07,1.92-.07,3.53,0,6.15-.16,17.57-2.47,23.41a48.17,48.17,0,0,1-8.92,14.2,2.61,2.61,0,0,0-.65,2.41l.23.76.72-.28a3.37,3.37,0,0,0,.39-.19c.9-.59,2.89-2.18,5.07-4,3.38-2.73,5.82-4.68,6.62-5a12,12,0,0,1,3.78-.75,5.79,5.79,0,0,1,3.44,1,20,20,0,0,0,9.34,3.36c1.78,0,11.34-3.09,20.15-12.33C192.7,258.62,201,245,200,222.62,199,203,190.91,192.61,176.56,192.61ZM301.38,213.3l-.36-.09c-.91,0-4.54-2.55-4.54-9.78,0-4.25.07-12.46.16-19.16.06-4.73.1-8.73.1-10.2,0-3.42-3.37-10.52-6.12-12.89A9.23,9.23,0,0,0,280,159.9c-3.29,1.68-7.85,4.25-10.06,7A15.28,15.28,0,0,0,267,174l-.06,1.26,1.13-.56a3.68,3.68,0,0,0,.82-.54l.4-.48c1.38-1.48,4-4.25,5.33-5l.52-.25a4,4,0,0,1,1.89-.63,3.13,3.13,0,0,1,2.27,1.25c1.71,1.87,3.7,5.67,3.82,8.19a34.12,34.12,0,0,1-.13,5.2l0,.16-.17.09c-.89.52-22.8,12.81-22.1,28.2.63,13.32,7.81,16.9,11.92,16.9a5.07,5.07,0,0,0,1.54-.21c7.64-2.59,8.62-12.05,8.72-13.15l.06-1.19.54,1.06c0,.06,3.21,5.92,7.28,5.92a4.88,4.88,0,0,0,1.67-.31,39.13,39.13,0,0,0,7.25-3.81,13.9,13.9,0,0,1,2-1.17l.84-.34-.49-.74A1.74,1.74,0,0,0,301.38,213.3Zm-19.91-22.13c0,1.31,0,12.81-.14,15.08a7.27,7.27,0,0,1-1.15,3.69l-.11-.17v.36a9.56,9.56,0,0,1-1.7,2c-1.1,1-2.68,2.26-4.14,2.26-1.79,0-2.81-1.78-3-5.29a18.3,18.3,0,0,1,7.26-16.1l.23-.2a2.43,2.43,0,0,1,.34-.32,7.21,7.21,0,0,1,2-1.57l.49-.24Zm119.08-31.42a4.41,4.41,0,0,1-2.9-1.41c-1.41-1.46-2.06-3.9-2-7.26.18-5.41,1-29.05,1-32.35,0-2.82-3.18-9-5.88-9.55s-5.57-.31-7.2.55-6.09,2.78-6.15,2.8a1.85,1.85,0,0,0-.85.59l-.21.29.11.36a2.15,2.15,0,0,0,2,1.23c1.08,0,3.93,3.63,4.18,7,.15,2-.35,11.56-.81,20l-.05.68c-.24,4.33-.52,9.74-.52,11.07l0,1.19c0,2.65-.11,5.2,2.28,7.42,2,1.88,4.47,3.79,6.85,3.79a4.43,4.43,0,0,0,1.58-.32,61.3,61.3,0,0,0,8.65-4c1-.59.89-1.31.86-1.44A1,1,0,0,0,400.54,159.75Zm75.23-20.94a1.79,1.79,0,0,0-.65-.69l-.36-.08c-1-.13-4.78-6-4.78-13.12,0-4.15.09-12,.18-18.67v-.52c.06-4.72.1-8.72.1-10.18,0-3.42-3.4-10.53-6.15-12.88a9.54,9.54,0,0,0-6.23-2.45,9.65,9.65,0,0,0-4.43,1.15c-3.58,1.87-7.94,4.35-10,7a15.42,15.42,0,0,0-2.91,7.16l0,1.29,1.13-.61a4.49,4.49,0,0,0,.77-.53l.47-.55c1.89-2,4-4.26,5.3-4.9l.53-.25c1.36-.69,2.68-.94,4.14.61,1.69,1.87,3.66,5.68,3.83,8.19a49.77,49.77,0,0,1-.13,5.23l0,.19-.14.1c-.23.11-22.91,12.5-22.11,28.15.62,13.36,7.78,16.92,11.92,16.92a4.51,4.51,0,0,0,1.53-.26c7.56-2.57,8.57-12,8.65-13.12l.07-1.17.56,1c0,.08,3.2,5.93,7.33,5.93a5.43,5.43,0,0,0,1.68-.31,19.59,19.59,0,0,1,7.9-1.46,12.92,12.92,0,0,0,1.38-.08l1.09-.14ZM455,112.66c0,4.74,0,13.22-.16,15.07a6.91,6.91,0,0,1-1.18,3.77l-.08-.17,0,.34a10.72,10.72,0,0,1-1.68,1.9c-1.17,1-2.68,2.24-4.12,2.24-1.79,0-2.81-1.79-3.06-5.25A18.54,18.54,0,0,1,452,114.33a3.91,3.91,0,0,0,.48-.43,7.2,7.2,0,0,1,2-1.55l.47-.23ZM436.71,87.74a11.08,11.08,0,0,0-7.24-3.46,3.17,3.17,0,0,0-2.34.78c-.56.64-1.88,2-3.39,3.58S420.49,92,420,92.6s-.87,1.62-.57,2.18c.17.38.68.62,1.46.68,2.62.15,4.6.52,6,3.91a21.16,21.16,0,0,1,0,15.58c-2.37,6.24-4.84,11.32-4.87,11.4l-.38.82-.22-.9c0-.09-.18-.74-.46-1.8-1.29-5.31-4.81-19.41-5.71-22.08-1.09-3.18-1.95-5.31-3.84-6.14l-1.19-.6c-1.46-.74-2.65-1.14-3.9.09-2,1.9-9.66,9.57-9.67,9.6a1.22,1.22,0,0,0-.36,1.25,1.61,1.61,0,0,0,1.19,1l.4,0a3.2,3.2,0,0,1,3.09,2.23c.93,2.17,7.57,25.41,10.38,42.74.29,1.64,1.08,3.11,1.78,3.42l.32.14.34-.17a3.42,3.42,0,0,0,1.13-1.59l6.36-14.87c6.44-15,15.3-35.59,16.07-37.65C438.89,97.55,440.46,91.43,436.71,87.74ZM380.14,169.8l-.15-.17-.18-.09a4.56,4.56,0,0,0-1.21-.13c-2.61-.11-4-6.4-4.36-10.1-.29-2.47.23-18,.57-29.36.28-8,.54-16.21.48-18.12a14.92,14.92,0,0,0-3.06-8.88,7.25,7.25,0,0,0-5.85-3.37,6.05,6.05,0,0,0-3.56,1.15l-1.8,1.32-.16.12a47.86,47.86,0,0,1-5.33,3.65,2,2,0,0,0-.61,1l0,.29.19.26a2.47,2.47,0,0,0,1.83,1,2.17,2.17,0,0,1,1.44.66A15.52,15.52,0,0,1,361,119c-.08,1.9-.13,7.19-.2,13.33l0,4.58c0,8.81-.13,19.57-.32,24.58-.26,7.6.87,10.59,3.11,13.44a7,7,0,0,0,5.43,2.67,4.49,4.49,0,0,0,2.28-.54c1.89-1.13,6.26-3.73,8.7-5.53.8-.6.56-1.19.41-1.44S380.17,169.85,380.14,169.8Zm-37.33-50.34a7.69,7.69,0,0,0-6.21-.3c-2.23.84-12.75,8.85-18.29,17a8.17,8.17,0,0,0-1.3,2.65l-.55,2.68,1.84-2a61.15,61.15,0,0,1,10.29-7.95,6.11,6.11,0,0,1,2.69-.55c3,0,10.27,1.8,14.06,18.51,5.2,23-5.7,40.64-8.42,42.71a6.83,6.83,0,0,1-3.81,1.67h-.43c-3.12,0-13.59-1.65-18.12-23-9.05-42.77,15.93-51,18.86-51.8a1.79,1.79,0,0,0,1.23-1.64l0-.45-.36-.22a5.11,5.11,0,0,0-2.66-.61,8.38,8.38,0,0,0-3.67.88c-27.69,13.75-26.47,45.51-26.07,55.94.32,7.6,6.19,29.62,21.49,29.62a19.5,19.5,0,0,0,7-1.43c9.22-3.53,17.15-12.12,21.75-23.53,3.23-8,5-17.62,5.37-28.58C358.33,126.26,343.46,119.72,342.81,119.46Z" transform="translate(-22.41 -57.43)"/></svg>