<?xml version="1.0" encoding="utf-8"?>
<!-- Generator: Adobe Illustrator 20.1.0, SVG Export Plug-In . SVG Version: 6.00 Build 0)  -->
<svg version="1.1" id="Layer_1" xmlns="http://www.w3.org/2000/svg" xmlns:xlink="http://www.w3.org/1999/xlink" x="0px" y="0px"
	 viewBox="0 0 595.3 841.9" style="enable-background:new 0 0 595.3 841.9;" xml:space="preserve">
<style type="text/css">
	.st0{fill:#ED1C24;}
	.st1{fill:#FFFFFF;}
	.st2{fill:url(#SVGID_1_);}
	.st3{clip-path:url(#SVGID_3_);}
	.st4{fill:#A1C1E6;}
	.st5{fill:#FEC34E;}
	.st6{fill:#F7941D;}
	.st7{fill:#0DB14B;}
	.st8{fill:#007647;}
	.st9{fill:#D1D3D4;}
	.st10{fill:#BCBEC0;}
	.st11{fill:#B4D670;}
	.st12{fill:none;stroke:#FFFFFF;stroke-width:17.972;stroke-linecap:round;stroke-linejoin:round;}
	.st13{fill:#004B1C;}
</style>
<g>
	<g>
		<g>
			<path class="st0" d="M581.4,419.7c0,21-17.7,38-39.6,38H48.8c-21.8,0-39.6-17-39.6-38v-34.8c0-21,17.7-38,39.6-38h493.1
				c21.8,0,39.6,17,39.6,38V419.7z"/>
			<g>
				<path class="st0" d="M524.4,395.8c0.1-3.2,0.2-6.4,0.2-9.6c0-125.6-101.8-227.5-227.5-227.5c-125.6,0-227.4,101.8-227.4,227.5
					c0,3.2,0.1,6.4,0.2,9.6H524.4z"/>
				<path class="st1" d="M515.3,396.9c0.2-3.5,0.3-7.1,0.3-10.7c0-120.6-97.8-218.4-218.4-218.4c-120.6,0-218.3,97.8-218.3,218.4
					c0,3.6,0.1,7.1,0.3,10.7H515.3z"/>
			</g>
			<path class="st1" d="M48.8,448.1c-16.1,0-29.3-12.8-29.3-28.4v-34.8c0-15.7,13.1-28.4,29.3-28.4h493.1
				c16.1,0,29.3,12.8,29.3,28.4v34.8c0,15.7-13.1,28.4-29.3,28.4H48.8z"/>
			<g>
				
					<radialGradient id="SVGID_1_" cx="296.5114" cy="379.7243" r="138.9373" gradientTransform="matrix(1.4286 0 0 1.4286 -127.101 -180.1619)" gradientUnits="userSpaceOnUse">
					<stop  offset="0.7416" style="stop-color:#FFFFFF"/>
					<stop  offset="0.8015" style="stop-color:#D8F0FD"/>
					<stop  offset="0.8908" style="stop-color:#A8E0F9"/>
					<stop  offset="0.9599" style="stop-color:#88D6F8"/>
					<stop  offset="1" style="stop-color:#7BD3F7"/>
				</radialGradient>
				<path class="st2" d="M502.5,364.4C488.1,260,401.7,179.7,297.2,179.7c-104.5,0-190.9,80.3-205.3,184.7H502.5z"/>
				<g>
					<defs>
						<path id="SVGID_2_" d="M504.6,396.1c0-0.3,0-0.6,0-0.9c0-119-92.9-215.5-207.5-215.5c-114.6,0-207.4,96.5-207.4,215.5
							c0,0.3,0,0.6,0,0.9H504.6z"/>
					</defs>
					<clipPath id="SVGID_3_">
						<use xlink:href="#SVGID_2_"  style="overflow:visible;"/>
					</clipPath>
					<g class="st3">
						<path class="st4" d="M89.8,271.2c50.8,0,97-17.6,142.4-29.3c22.1-5.7,40.1-11.1,64.1-11.1c19.3,0,38.4,4.8,56.5,8.3
							c50.2,9.8,99,22,151.8,22v64.2H89.8V271.2z"/>
						<g>
							<polygon class="st5" points="89.5,289.3 285.9,297.6 284.5,332.1 253,334.3 89.5,330.4 							"/>
							<polygon class="st6" points="89.5,368.2 89.5,317.5 278.8,329 245.5,335.2 169.4,353.5 							"/>
							<path class="st7" d="M296.8,273.1c-1-4.4-9.5-10.1-10-2.2c0.8-5.9-6.8-7.6-9.6-4.4c-0.3-8.1-13.5-8.8-12.8-2.3
								c-0.8-2.2-2.2-6-4.8-7.1c-3.1-1.3-11.1,1-11.7,4.2c-1-7.9-14.8-10.8-14.9-0.8c-0.5-5.1-2.5-7.8-7.9-6.2
								c-5.8,1.7-7.5,4.6-7.4,10.1c-4.4-10.2-15,3.6-12.2,11.4c-1.2-2.1-1.5-5.4-3.9-6.8c-2.9-1.6-14.4-0.2-14,4.4
								c-0.8-7-7.5-11.4-13.1-5.2c-0.3-2.5-2-6.9-5.3-7.5c-3.7-0.7-7.8,4-6.1,7.3c-0.2-2.7-2.5-8.2-5.7-8.1
								c-4.8,0.1-5.2,7.7-3.4,10.6c-0.8-2.1-1.6-4.4-3.2-6c-9.3,3.5-2.3,7.3-5.1,13.1c-2.1-2.1-1.6-4.6-3-6.9
								c-2.3-3.6-6.9-4.1-11.2-3.7c2.8-7.2-10.3-9.3-11.9-3.1c-3.4-8.4-16.2-3.6-18.9,3.4c-2.8-3.4-7.8-7.5-11.1-4.5v29.5l183.7,10
								l30.8-24.9c0,0-0.7-3.7-2.6-5C299.4,271,296.8,273.1,296.8,273.1z"/>
							<g>
								<path class="st8" d="M289.1,270.4c0-10.4-1-20.2,0.7-30.2c1.5-8.7-0.4-22.1,4.5-29.4c2,8.5,2.4,17.9,3.3,26.6
									c0.8,7.6-0.7,19.8,3.8,25.9c0.6-6.5-3.2-44.4,4.6-44.9c0.8,12.7,1.2,28.9,4.7,39.7c0.6-6.8-3.6-31.5,3.8-34.4
									c3.2,7.2-0.9,21.6,7.2,26.5c2.4-4.8,1.6-20.6,8.5-21.2c2.6,5,2.7,16.1,8,18.9c0.6-0.5,1.4-0.9,2-1.3c3.3,3.4,1.7,9.2,2,13.7
									c0.5,6.7,2,13.5,2.8,20.3c1.2,9.9,2.7,22.9,0,32.4c-3.3,11.7-15.2,10.8-26.4,12.3c-12.4,1.7-19.1,2.4-25.4-8.2
									c-5.3-8.9-5.4-17.6-5.4-27.8c0-8-1.7-19.3,1.3-26.7"/>
								<path class="st7" d="M329.7,254.8c-0.2-8.4,10.9-18.4,17.1-9.4c4-6.7,11.2-11.4,15.6-2.7c-0.1-10,12.9-9.7,15.2-1.2
									c5.4-9.2,23.9-12.6,23.5,1.9c5.7-10.1,21.6-5.8,20.3,6.2c8.7-5.9,25.4-1.6,19.9,10.8c1.9-10.6,17.7-3.3,18,5.8
									c-5-9.6,11.6-18.2,14.5-5.9c-1.3-3.6-0.6-12.5,4.9-12.3c3.2,0.1,6.2,7.4,6.8,8.8c-0.6-5.8,5.6-12.5,11.6-11.3
									c4.6,0.9,6.5,7.5,7.5,11.9v78l-80-9.4l-89.9-1.3L329.7,254.8z"/>
							</g>
							<g>
								<g>
									<polygon class="st9" points="364.7,279.6 382.7,253.1 393.2,274.1 393.2,325.7 367.1,325.1 									"/>
									<polygon class="st1" points="367.9,325.3 308.6,326.5 308.6,277.9 367.5,277.9 									"/>
									<path class="st0" d="M396.1,272.3l-11.2-19.6c0-0.1-0.2-0.2-0.2-0.3l0-0.1c0,0,0,0,0,0c-0.2-0.5-0.4-1-1-1.3
										c-1.3-0.8-70.9,0.8-70.9,0.8l-15.9,28.7c0,0,68.9,2.3,70.8-0.5l14.2-21.3l9.3,16.3c0.6,1,2.1,1.2,3.5,0.5
										C396,274.7,396.7,273.3,396.1,272.3z"/>
								</g>
								<g>
									<polygon class="st1" points="271.5,300.1 287.4,284.9 305.3,302 305.3,326.3 273.2,330.4 									"/>
									<path class="st0" d="M266.4,301c1.1,1,2.7,1.1,3.6,0.2l19.6-18.7c1-0.9,0.9-2.4-0.2-3.4l0,0c-1-1-2.7-1.1-3.6-0.2
										l-19.6,18.7C265.3,298.5,265.4,300,266.4,301L266.4,301z"/>
									<path class="st10" d="M304.6,298.4l0.7,27.8c0,0,23.1,0,28,0c4.9,0,6-0.7,6-0.7l-0.1-28.5L304.6,298.4z"/>
									<path class="st0" d="M342,296.1l-19.5-17.6c-0.9-0.9-35.2-0.3-35.7,0.2c-1,1-1.5,4.4-0.5,5.3l18.6,17.6
										c0.9,0.9,35.9-1,37-2C342.8,298.6,342.9,297,342,296.1z"/>
								</g>
							</g>
							<path class="st11" d="M234.5,369.3c-6.2-4.5-13.8-8.6-20.9-12.8c-2.6-1.6-6.5-3.4-10.2-5.6c-2-1.2-3.9-2.6-5.5-4.2
								c-9.1,2-19.2,4.1-29,5.9c0,0.4,0,0.8,0,1.2c0,3-0.2,6.1-1.5,9.3c-1.7,4-3.8,7.8-4.7,11.4c-0.5,1.8-0.7,3.4-0.7,4.8
								c0,4.5,2.2,7.9,6,13.1c0.5,0.7,0.5,1.5,0.2,2.2h81.1C248.3,384.2,244,376.4,234.5,369.3z M453.4,380.8
								c-18-16.6-42.7-24-66.5-33.9c-13.1-5.5-27.8-9-41.9-12.5c-6.4-1.6-12.9-3.4-19.2-5.2c-3.7-1.1-8.7-1.4-13.2-3.2
								c-1.1,0-2.2,0.1-3.2,0.1c-17.8,0.5-46,4.8-67.6,9.3c1.9,1.6,4.2,2.9,6.7,4.1c5.2,2.4,11.3,4.1,16.6,5.8
								c14.2,4.5,27.8,7.6,40.9,16c5.9,3.9,12.7,8.8,18,14.8c4.7,5.3,8.2,11.5,9,18.3h134.9C463.4,389.8,458.3,385.4,453.4,380.8z
								 M303,365.4c-12.1-7.8-25.1-10.8-39.6-15.4c-5.1-1.6-11.4-3.3-17.2-6.1c-3.8-1.8-7.4-4.1-10.2-7.2
								c-7.6,1.7-14.2,3.3-18.6,4.8c-3.6,1.1-8.3,2.4-13.4,3.6c0.7,0.6,1.5,1.1,2.4,1.6c3.3,2,7.1,3.8,10.1,5.6
								c6.9,4.1,14.6,8.2,21.2,13.1c10.7,7.7,15.9,17.3,16.8,29h73.3c-0.8-5.4-3.6-10.5-7.8-15.2C315.1,373.8,308.7,369.1,303,365.4
								z M440.9,323.4c-20.1-1.6-76.1,0.7-110.8,2.1c5.4,1.5,10.9,3,16.3,4.4c14.1,3.5,29,7,42.7,12.7c23.3,9.8,48.8,17.2,68,34.8
								c5.9,5.4,12.2,10.9,17.6,17.1h29.8v-66.3C504.6,328.2,465.7,325.4,440.9,323.4z M122,374c3.4-2.3,6.6-4.4,8.9-6.6
								c2.2-2.3,3.5-4.6,3.6-7.9l0-0.7c-19.6,3.6-44.9,8.3-44.9,8.3v27.5h21.4c-1.3-1.9-2.1-3.8-2.1-5.7c0-3.6,2.2-6.4,4.8-8.6
								C116.1,377.9,119.3,375.9,122,374z M157.6,373.3c1.2-4.3,3.4-8.3,4.9-12c1-2.3,1.2-4.7,1.2-7.6c0-0.1,0-0.2,0-0.3
								c-8.9,1.6-17.3,3.1-23.6,4.3c-0.2,0-0.4,0.1-0.6,0.1c0,0.1,0.2,0.2,0.2,0.3l0.1,1.4c0,4.7-2.1,8.4-4.9,11.2
								c-2.8,2.8-6.3,5-9.6,7.2c-2.9,1.9-5.8,3.8-7.9,5.7c-2.2,1.9-3.2,3.6-3.2,5.1c0,1.1,0.5,2.6,2.2,4.5c0.3,0.3,0.3,0.8,0.4,1.2
								h46.5c-3.7-4.9-6.5-9.3-6.5-15.3C156.7,377.3,157,375.4,157.6,373.3z"/>
						</g>
					</g>
				</g>
			</g>
			<g>
				<g>
					<path class="st12" d="M61.6,432.4H37.7v-13.7h5.2v-34.6h-5.2v-13.7h23.9c9.4,0,16.6,2.6,21.6,7.8c5,5.2,7.5,12.9,7.5,23.1
						c0,9.9-2.5,17.6-7.4,23C78.3,429.7,71.1,432.4,61.6,432.4z M59.6,384.2v34.6h2c2.4,0,4.4-0.7,5.9-2.2c1.5-1.5,2.7-3.5,3.4-6.2
						c0.7-2.6,1.1-5.6,1.1-8.9c0-5.1-0.8-9.2-2.5-12.4c-1.6-3.2-4.3-4.8-8-4.8H59.6z"/>
					<path class="st12" d="M121.2,432.4H96.3v-11.7h4.2v-18h-4.2v-10.5l19.7-2.3v6.8c0.7-1.3,1.7-2.5,3-3.5c1.3-1,2.8-1.8,4.3-2.4
						c1.5-0.6,2.9-0.9,4.1-0.9v16.5c-2.5-1-4.6-1.5-6.3-1.5c-2.1,0-3.5,0.7-4.2,2.2c-0.7,1.4-1,3.3-1,5.7v8h5.2V432.4z"/>
					<path class="st12" d="M150.8,433.1c-4,0-7.5-0.9-10.5-2.7c-3-1.8-5.3-4.3-6.9-7.6c-1.6-3.3-2.4-7.2-2.4-11.6
						c0-4.4,0.8-8.2,2.3-11.4c1.5-3.2,3.7-5.7,6.5-7.4c2.8-1.7,6.1-2.6,9.9-2.6c3.5,0,6.6,0.8,9.2,2.5c2.7,1.7,4.7,4,6.2,7.1
						c1.5,3,2.2,6.6,2.2,10.6c0,1.4-0.2,2.7-0.5,4h-20.2c0,2.4,0.8,4.4,2.3,5.9c1.5,1.5,3.4,2.2,5.5,2.2c1.6,0,3.5-0.3,5.4-1
						c2-0.7,3.9-1.8,5.9-3.2l0.6,0.2v10.5c-2.2,1.5-4.5,2.7-6.9,3.4C157.2,432.7,154.3,433.1,150.8,433.1z M146.7,406v1.1h8.3v-0.8
						c0-1.8-0.4-3.4-1.1-4.8c-0.7-1.3-1.7-2-3.1-2c-1.1,0-2.1,0.7-2.9,2S146.7,404.4,146.7,406z"/>
					<path class="st12" d="M184.9,433.1c-2.2,0-4.2-0.5-6-1.6c-1.8-1-3.3-2.5-4.3-4.4c-1.1-1.9-1.6-4.2-1.6-6.7c0-2.8,0.6-5.1,1.9-7
						c1.3-1.9,2.9-3.3,5-4.2c2.1-0.9,4.3-1.4,6.7-1.4c2.8,0,5.6,0.5,8.2,1.5v-1.8c0-2.1-0.7-3.7-2.2-4.8c-1.5-1.1-3.4-1.6-5.9-1.6
						c-1.1,0-2.3,0.2-3.6,0.5c-1.3,0.3-2.6,0.7-3.9,1.3c-1.3,0.5-2.3,1.2-3.3,1.8l-0.9-0.5V393c2.6-1.1,5.3-1.9,8-2.4
						c2.7-0.5,5.3-0.7,7.6-0.7c13.2,0,19.7,4.4,19.7,13.3v17.5h3.1v11.7h-16.6l-1.5-6.4c-0.9,2.2-2.4,3.9-4.3,5.2
						C189,432.5,187,433.1,184.9,433.1z M191,423.1c0.7,0,1.4-0.1,2.2-0.4c0.7-0.3,1.3-0.6,1.5-0.9v-6.5c-0.3-0.1-0.8-0.2-1.6-0.5
						c-0.7-0.2-1.4-0.4-1.9-0.4c-1.1,0-2.1,0.4-2.7,1.3c-0.7,0.9-1,2-1,3.4c0,1.1,0.3,2,1,2.8C189.1,422.8,189.9,423.1,191,423.1z"
						/>
					<path class="st12" d="M283.8,405.9v15.2h4.5v11.3h-20.1v-26.6c0-1.1-0.3-2.1-0.9-3c-0.6-0.9-1.3-1.3-2.2-1.3
						c-1.6,0-2.6,1-3,2.8c-0.4,1.9-0.6,4.7-0.6,8.2v19.8H246v-26.6c0-1.1-0.3-2.1-0.9-3c-0.6-0.9-1.3-1.3-2.2-1.3
						c-1.6,0-2.6,1-3,2.8c-0.4,1.9-0.6,4.7-0.6,8.2v8.5h0.1v11.3h-20.3v-11.3h4.7v-18.4h-4.7v-10.5l20.2-2.3v5.8
						c1.5-2.1,3.2-3.6,5.1-4.5c1.9-0.9,4.1-1.3,6.5-1.3c4.9,0,8.1,2.5,9.6,7.5c1.6-2.7,3.4-4.7,5.5-5.8c2.1-1.1,4.4-1.7,7.1-1.7
						C280.3,389.9,283.8,395.2,283.8,405.9z"/>
					<path class="st12" d="M356.6,384.2l-12.9,48.3h-19l-11.7-48.3h-5.4v-13.7h28v13.7H332l6.5,28.2l5.7-28.2H340v-13.7h22.6v13.7
						H356.6z"/>
					<path class="st12" d="M374.6,433.1c-2.2,0-4.2-0.5-6-1.6c-1.8-1-3.3-2.5-4.3-4.4c-1.1-1.9-1.6-4.2-1.6-6.7c0-2.8,0.6-5.1,1.9-7
						c1.3-1.9,2.9-3.3,5-4.2c2.1-0.9,4.3-1.4,6.7-1.4c2.8,0,5.6,0.5,8.2,1.5v-1.8c0-2.1-0.7-3.7-2.2-4.8c-1.5-1.1-3.4-1.6-5.9-1.6
						c-1.1,0-2.3,0.2-3.6,0.5c-1.3,0.3-2.6,0.7-3.9,1.3c-1.3,0.5-2.3,1.2-3.3,1.8l-0.9-0.5V393c2.6-1.1,5.3-1.9,8-2.4
						c2.7-0.5,5.3-0.7,7.6-0.7c13.2,0,19.7,4.4,19.7,13.3v17.5h3.1v11.7h-16.6L385,426c-0.9,2.2-2.4,3.9-4.3,5.2
						C378.7,432.5,376.7,433.1,374.6,433.1z M380.7,423.1c0.7,0,1.4-0.1,2.2-0.4c0.7-0.3,1.3-0.6,1.5-0.9v-6.5
						c-0.3-0.1-0.8-0.2-1.6-0.5c-0.7-0.2-1.4-0.4-1.9-0.4c-1.1,0-2.1,0.4-2.7,1.3c-0.7,0.9-1,2-1,3.4c0,1.1,0.3,2,1,2.8
						C378.8,422.8,379.6,423.1,380.7,423.1z"/>
					<path class="st12" d="M434.7,420.7v11.7h-26.3v-11.7h5.7v-35.9h-5.7v-10.6l21.3-2.6v49.1H434.7z"/>
					<path class="st12" d="M466.4,420.7v11.7h-26.3v-11.7h5.7v-35.9h-5.7v-10.6l21.3-2.6v49.1H466.4z"/>
					<path class="st12" d="M490.7,433.1c-4,0-7.5-0.9-10.5-2.7c-3-1.8-5.3-4.3-6.9-7.6c-1.6-3.3-2.4-7.2-2.4-11.6
						c0-4.4,0.8-8.2,2.3-11.4c1.5-3.2,3.7-5.7,6.5-7.4c2.8-1.7,6.1-2.6,9.9-2.6c3.5,0,6.6,0.8,9.2,2.5c2.7,1.7,4.7,4,6.2,7.1
						c1.5,3,2.2,6.6,2.2,10.6c0,1.4-0.2,2.7-0.5,4h-20.2c0,2.4,0.8,4.4,2.3,5.9c1.5,1.5,3.4,2.2,5.5,2.2c1.6,0,3.5-0.3,5.4-1
						c2-0.7,3.9-1.8,5.9-3.2l0.6,0.2v10.5c-2.2,1.5-4.5,2.7-6.9,3.4C497.1,432.7,494.2,433.1,490.7,433.1z M486.6,406v1.1h8.3v-0.8
						c0-1.8-0.4-3.4-1.1-4.8c-0.7-1.3-1.7-2-3.1-2c-1.1,0-2.1,0.7-2.9,2C487,402.9,486.6,404.4,486.6,406z"/>
					<path class="st12" d="M540.8,419.6v13h-23.7v-13h7l1.9-3.8l-16-30.1h-4.4V373h25.7v12.7h-3.4l5.7,12.6l5.2-12.6h-3.7V373h19.2
						v12.7h-3.7l-15,33.9H540.8z"/>
				</g>
				<g>
					<path class="st13" d="M61.6,432.4H37.7v-13.7h5.2v-34.6h-5.2v-13.7h23.9c9.4,0,16.6,2.6,21.6,7.8c5,5.2,7.5,12.9,7.5,23.1
						c0,9.9-2.5,17.6-7.4,23C78.3,429.7,71.1,432.4,61.6,432.4z M59.6,384.2v34.6h2c2.4,0,4.4-0.7,5.9-2.2c1.5-1.5,2.7-3.5,3.4-6.2
						c0.7-2.6,1.1-5.6,1.1-8.9c0-5.1-0.8-9.2-2.5-12.4c-1.6-3.2-4.3-4.8-8-4.8H59.6z"/>
					<path class="st13" d="M121.2,432.4H96.3v-11.7h4.2v-18h-4.2v-10.5l19.7-2.3v6.8c0.7-1.3,1.7-2.5,3-3.5c1.3-1,2.8-1.8,4.3-2.4
						c1.5-0.6,2.9-0.9,4.1-0.9v16.5c-2.5-1-4.6-1.5-6.3-1.5c-2.1,0-3.5,0.7-4.2,2.2c-0.7,1.4-1,3.3-1,5.7v8h5.2V432.4z"/>
					<path class="st13" d="M150.8,433.1c-4,0-7.5-0.9-10.5-2.7c-3-1.8-5.3-4.3-6.9-7.6c-1.6-3.3-2.4-7.2-2.4-11.6
						c0-4.4,0.8-8.2,2.3-11.4c1.5-3.2,3.7-5.7,6.5-7.4c2.8-1.7,6.1-2.6,9.9-2.6c3.5,0,6.6,0.8,9.2,2.5c2.7,1.7,4.7,4,6.2,7.1
						c1.5,3,2.2,6.6,2.2,10.6c0,1.4-0.2,2.7-0.5,4h-20.2c0,2.4,0.8,4.4,2.3,5.9c1.5,1.5,3.4,2.2,5.5,2.2c1.6,0,3.5-0.3,5.4-1
						c2-0.7,3.9-1.8,5.9-3.2l0.6,0.2v10.5c-2.2,1.5-4.5,2.7-6.9,3.4C157.2,432.7,154.3,433.1,150.8,433.1z M146.7,406v1.1h8.3v-0.8
						c0-1.8-0.4-3.4-1.1-4.8c-0.7-1.3-1.7-2-3.1-2c-1.1,0-2.1,0.7-2.9,2S146.7,404.4,146.7,406z"/>
					<path class="st13" d="M184.9,433.1c-2.2,0-4.2-0.5-6-1.6c-1.8-1-3.3-2.5-4.3-4.4c-1.1-1.9-1.6-4.2-1.6-6.7c0-2.8,0.6-5.1,1.9-7
						c1.3-1.9,2.9-3.3,5-4.2c2.1-0.9,4.3-1.4,6.7-1.4c2.8,0,5.6,0.5,8.2,1.5v-1.8c0-2.1-0.7-3.7-2.2-4.8c-1.5-1.1-3.4-1.6-5.9-1.6
						c-1.1,0-2.3,0.2-3.6,0.5c-1.3,0.3-2.6,0.7-3.9,1.3c-1.3,0.5-2.3,1.2-3.3,1.8l-0.9-0.5V393c2.6-1.1,5.3-1.9,8-2.4
						c2.7-0.5,5.3-0.7,7.6-0.7c13.2,0,19.7,4.4,19.7,13.3v17.5h3.1v11.7h-16.6l-1.5-6.4c-0.9,2.2-2.4,3.9-4.3,5.2
						C189,432.5,187,433.1,184.9,433.1z M191,423.1c0.7,0,1.4-0.1,2.2-0.4c0.7-0.3,1.3-0.6,1.5-0.9v-6.5c-0.3-0.1-0.8-0.2-1.6-0.5
						c-0.7-0.2-1.4-0.4-1.9-0.4c-1.1,0-2.1,0.4-2.7,1.3c-0.7,0.9-1,2-1,3.4c0,1.1,0.3,2,1,2.8C189.1,422.8,189.9,423.1,191,423.1z"
						/>
					<path class="st13" d="M283.8,405.9v15.2h4.5v11.3h-20.1v-26.6c0-1.1-0.3-2.1-0.9-3c-0.6-0.9-1.3-1.3-2.2-1.3
						c-1.6,0-2.6,1-3,2.8c-0.4,1.9-0.6,4.7-0.6,8.2v19.8H246v-26.6c0-1.1-0.3-2.1-0.9-3c-0.6-0.9-1.3-1.3-2.2-1.3
						c-1.6,0-2.6,1-3,2.8c-0.4,1.9-0.6,4.7-0.6,8.2v8.5h0.1v11.3h-20.3v-11.3h4.7v-18.4h-4.7v-10.5l20.2-2.3v5.8
						c1.5-2.1,3.2-3.6,5.1-4.5c1.9-0.9,4.1-1.3,6.5-1.3c4.9,0,8.1,2.5,9.6,7.5c1.6-2.7,3.4-4.7,5.5-5.8c2.1-1.1,4.4-1.7,7.1-1.7
						C280.3,389.9,283.8,395.2,283.8,405.9z"/>
					<path class="st13" d="M356.6,384.2l-12.9,48.3h-19l-11.7-48.3h-5.4v-13.7h28v13.7H332l6.5,28.2l5.7-28.2H340v-13.7h22.6v13.7
						H356.6z"/>
					<path class="st13" d="M374.6,433.1c-2.2,0-4.2-0.5-6-1.6c-1.8-1-3.3-2.5-4.3-4.4c-1.1-1.9-1.6-4.2-1.6-6.7c0-2.8,0.6-5.1,1.9-7
						c1.3-1.9,2.9-3.3,5-4.2c2.1-0.9,4.3-1.4,6.7-1.4c2.8,0,5.6,0.5,8.2,1.5v-1.8c0-2.1-0.7-3.7-2.2-4.8c-1.5-1.1-3.4-1.6-5.9-1.6
						c-1.1,0-2.3,0.2-3.6,0.5c-1.3,0.3-2.6,0.7-3.9,1.3c-1.3,0.5-2.3,1.2-3.3,1.8l-0.9-0.5V393c2.6-1.1,5.3-1.9,8-2.4
						c2.7-0.5,5.3-0.7,7.6-0.7c13.2,0,19.7,4.4,19.7,13.3v17.5h3.1v11.7h-16.6L385,426c-0.9,2.2-2.4,3.9-4.3,5.2
						C378.7,432.5,376.7,433.1,374.6,433.1z M380.7,423.1c0.7,0,1.4-0.1,2.2-0.4c0.7-0.3,1.3-0.6,1.5-0.9v-6.5
						c-0.3-0.1-0.8-0.2-1.6-0.5c-0.7-0.2-1.4-0.4-1.9-0.4c-1.1,0-2.1,0.4-2.7,1.3c-0.7,0.9-1,2-1,3.4c0,1.1,0.3,2,1,2.8
						C378.8,422.8,379.6,423.1,380.7,423.1z"/>
					<path class="st13" d="M434.7,420.7v11.7h-26.3v-11.7h5.7v-35.9h-5.7v-10.6l21.3-2.6v49.1H434.7z"/>
					<path class="st13" d="M466.4,420.7v11.7h-26.3v-11.7h5.7v-35.9h-5.7v-10.6l21.3-2.6v49.1H466.4z"/>
					<path class="st13" d="M490.7,433.1c-4,0-7.5-0.9-10.5-2.7c-3-1.8-5.3-4.3-6.9-7.6c-1.6-3.3-2.4-7.2-2.4-11.6
						c0-4.4,0.8-8.2,2.3-11.4c1.5-3.2,3.7-5.7,6.5-7.4c2.8-1.7,6.1-2.6,9.9-2.6c3.5,0,6.6,0.8,9.2,2.5c2.7,1.7,4.7,4,6.2,7.1
						c1.5,3,2.2,6.6,2.2,10.6c0,1.4-0.2,2.7-0.5,4h-20.2c0,2.4,0.8,4.4,2.3,5.9c1.5,1.5,3.4,2.2,5.5,2.2c1.6,0,3.5-0.3,5.4-1
						c2-0.7,3.9-1.8,5.9-3.2l0.6,0.2v10.5c-2.2,1.5-4.5,2.7-6.9,3.4C497.1,432.7,494.2,433.1,490.7,433.1z M486.6,406v1.1h8.3v-0.8
						c0-1.8-0.4-3.4-1.1-4.8c-0.7-1.3-1.7-2-3.1-2c-1.1,0-2.1,0.7-2.9,2C487,402.9,486.6,404.4,486.6,406z"/>
					<path class="st13" d="M540.8,419.6v13h-23.7v-13h7l1.9-3.8l-16-30.1h-4.4V373h25.7v12.7h-3.4l5.7,12.6l5.2-12.6h-3.7V373h19.2
						v12.7h-3.7l-15,33.9H540.8z"/>
				</g>
			</g>
		</g>
		<g>
			<g>
				<path class="st0" d="M535.9,317.1c0.9-0.2,2.3-0.3,3.6-0.3c2,0,3.3,0.4,4.2,1.2c0.7,0.6,1.1,1.6,1.1,2.8c0,1.9-1.2,3.1-2.7,3.6
					v0.1c1.1,0.4,1.7,1.4,2.1,2.9c0.5,2,0.8,3.4,1.1,4h-1.9c-0.2-0.4-0.5-1.6-0.9-3.4c-0.4-2-1.2-2.7-2.9-2.8h-1.8v6.2h-1.9V317.1z
					 M537.8,323.6h1.9c2,0,3.2-1.1,3.2-2.7c0-1.9-1.3-2.7-3.3-2.7c-0.9,0-1.5,0.1-1.8,0.2V323.6z"/>
			</g>
			<g>
				<path class="st0" d="M540,336c-6.7,0-12.1-5.4-12.1-12c0-6.6,5.4-12,12.1-12c6.6,0,12,5.4,12,12C552.1,330.6,546.7,336,540,336z
					 M540,313.3c-5.9,0-10.6,4.7-10.6,10.6c0,5.9,4.8,10.6,10.6,10.6c5.9,0,10.6-4.8,10.6-10.6C550.6,318.1,545.9,313.3,540,313.3z"
					/>
			</g>
		</g>
	</g>
	<rect x="433.7" y="386.9" class="st1" width="8" height="9.4"/>
</g>
</svg>
