<svg id="Layer_1" data-name="Layer 1" xmlns="http://www.w3.org/2000/svg" xmlns:xlink="http://www.w3.org/1999/xlink" viewBox="0 0 518.97 271.16"><defs><style>.cls-1,.cls-14{fill:none;}.cls-2{fill:#ed1c24;}.cls-3{fill:#fff;}.cls-4{fill:url(#radial-gradient);}.cls-5{clip-path:url(#clip-path);}.cls-6{fill:#a1c1e6;}.cls-7{fill:#fec34e;}.cls-8{fill:#f7941d;}.cls-9{fill:#0db14b;}.cls-10{fill:#007647;}.cls-11{fill:#d1d3d4;}.cls-12{fill:#bcbec0;}.cls-13{fill:#b4d670;}.cls-14{stroke:#fff;stroke-linecap:round;stroke-linejoin:round;stroke-width:16.3px;}.cls-15{fill:#004b1c;}</style><radialGradient id="radial-gradient" cx="297.37" cy="230.25" r="180.03" gradientUnits="userSpaceOnUse"><stop offset="0.74" stop-color="#fff"/><stop offset="0.82" stop-color="#ceeffc"/><stop offset="0.9" stop-color="#a1e0f9"/><stop offset="0.96" stop-color="#85d6f8"/><stop offset="1" stop-color="#7bd3f7"/></radialGradient><clipPath id="clip-path" transform="translate(-36.79 -45.64)"><path class="cls-1" d="M486.14,260.91c0-.26,0-.54,0-.8,0-107.95-84.25-195.46-188.18-195.46S109.83,152.16,109.83,260.11c0,.27,0,.54,0,.8Z"/></clipPath></defs><title>Dream_Valley</title><path class="cls-2" d="M555.76,282.31c0,19.05-16.07,34.49-35.88,34.49H72.67c-19.81,0-35.88-15.44-35.88-34.49v-31.6c0-19.05,16.06-34.49,35.88-34.49H519.88c19.81,0,35.88,15.43,35.88,34.49Z" transform="translate(-36.79 -45.64)"/><path class="cls-2" d="M504.09,260.67c.12-2.91.22-5.8.22-8.73C504.31,138,411.94,45.64,298,45.64S91.68,138,91.68,251.94c0,2.93.09,5.82.22,8.73Z" transform="translate(-36.79 -45.64)"/><path class="cls-3" d="M495.81,261.63q.24-4.81.24-9.69c0-109.37-88.67-198-198.08-198s-198,88.67-198,198q0,4.88.24,9.69Z" transform="translate(-36.79 -45.64)"/><path class="cls-3" d="M72.67,308.1c-14.65,0-26.56-11.57-26.56-25.79v-31.6c0-14.22,11.91-25.79,26.56-25.79H519.88c14.65,0,26.56,11.57,26.56,25.79v31.6c0,14.22-11.91,25.79-26.56,25.79Z" transform="translate(-36.79 -45.64)"/><path class="cls-4" d="M484.22,232.15C471.15,137.45,392.77,64.65,298,64.65s-173.13,72.8-186.19,167.5Z" transform="translate(-36.79 -45.64)"/><g class="cls-5"><path class="cls-6" d="M109.88,147.63c46.08,0,88-16,129.12-26.59,20-5.17,36.37-10.07,58.17-10.1,17.51,0,34.81,4.35,51.21,7.55,45.51,8.87,89.8,20,137.71,20v58.27H109.88Z" transform="translate(-36.79 -45.64)"/><polygon class="cls-7" points="72.86 118.38 250.92 125.93 249.73 157.21 221.08 159.23 72.86 155.7 72.86 118.38"/><polygon class="cls-8" points="72.86 189.98 72.86 143.97 244.51 154.37 214.28 160.04 145.29 176.66 72.86 189.98"/><path class="cls-9" d="M297.62,149.32c-.91-4-8.58-9.19-9.11-2,.7-5.32-6.2-6.86-8.71-4-.32-7.35-12.24-8-11.57-2.05-.69-2-2-5.46-4.34-6.41-2.85-1.16-10.09,1-10.61,3.76-.94-7.21-13.42-9.81-13.47-.75-.48-4.6-2.3-7.07-7.15-5.63-5.24,1.57-6.83,4.21-6.7,9.2-4-9.25-13.59,3.23-11.07,10.35-1.08-1.94-1.37-4.94-3.57-6.18-2.63-1.48-13.1-.14-12.68,3.95-.72-6.33-6.78-10.33-11.87-4.73-.24-2.29-1.86-6.29-4.79-6.8-3.38-.6-7.06,3.64-5.5,6.62-.19-2.42-2.23-7.43-5.17-7.33-4.4.13-4.75,7-3.11,9.58-.74-1.93-1.41-4-2.9-5.47-8.45,3.2-2.11,6.6-4.67,11.85-1.91-1.92-1.41-4.14-2.77-6.25-2.07-3.25-6.27-3.73-10.16-3.38,2.49-6.57-9.35-8.48-10.83-2.79-3-7.59-14.65-3.25-17.14,3.12-2.49-3.13-7.09-6.85-10.08-4.12v26.77l166.58,9,27.92-22.61s-.6-3.4-2.39-4.54S297.62,149.32,297.62,149.32Z" transform="translate(-36.79 -45.64)"/><path class="cls-10" d="M290.68,146.85c0-9.46-.92-18.28.63-27.41,1.32-7.86-.37-20,4.12-26.68,1.82,7.71,2.2,16.27,3,24.11.72,6.91-.66,18,3.42,23.49.51-5.92-2.92-40.23,4.19-40.73.73,11.49,1.13,26.18,4.25,36,.55-6.16-3.3-28.56,3.46-31.18,2.89,6.53-.8,19.59,6.53,24.05,2.17-4.31,1.47-18.69,7.73-19.2,2.39,4.5,2.45,14.63,7.24,17.17.51-.41,1.26-.79,1.78-1.19,3,3.08,1.5,8.34,1.78,12.43.44,6.07,1.82,12.25,2.5,18.43,1,9,2.45,20.81,0,29.39-3,10.6-13.76,9.76-23.91,11.16-11.27,1.53-17.32,2.13-23-7.43-4.8-8.12-4.91-15.94-4.91-25.23,0-7.27-1.5-17.54,1.18-24.19" transform="translate(-36.79 -45.64)"/><path class="cls-9" d="M327.52,132.73c-.17-7.61,9.9-16.73,15.48-8.54,3.63-6.11,10.2-10.34,14.16-2.41-.06-9.11,11.69-8.76,13.79-1.11,4.87-8.39,21.72-11.4,21.33,1.71,5.16-9.14,19.57-5.3,18.4,5.63,7.88-5.36,23.08-1.48,18,9.78,1.71-9.62,16-3,16.37,5.22-4.53-8.72,10.52-16.47,13.13-5.38-1.17-3.27-.52-11.32,4.45-11.14,2.86.1,5.62,6.69,6.14,8-.55-5.22,5.09-11.35,10.5-10.28,4.15.82,5.94,6.8,6.8,10.75v70.71l-72.58-8.48L332,196.06Z" transform="translate(-36.79 -45.64)"/><polygon class="cls-11" points="322.46 109.57 338.79 85.54 348.29 104.62 348.29 151.4 324.61 150.9 322.46 109.57"/><polygon class="cls-3" points="325.3 151.06 271.51 152.12 271.51 108.02 324.99 108.02 325.3 151.06"/><path class="cls-2" d="M387.71,148.64l-10.2-17.82c0-.11-.14-.18-.18-.29l0-.09h0a2.28,2.28,0,0,0-.87-1.19c-1.17-.71-64.3.7-64.3.7l-14.43,26s62.48,2.08,64.21-.45l12.89-19.29,8.48,14.8c.5.89,1.94,1.08,3.17.43S388.23,149.53,387.71,148.64Z" transform="translate(-36.79 -45.64)"/><polygon class="cls-3" points="237.86 128.18 252.32 114.43 268.54 129.89 268.54 151.94 239.44 155.7 237.86 128.18"/><path class="cls-2" d="M270.09,174.65a2.4,2.4,0,0,0,3.27.17l17.78-16.93a2.13,2.13,0,0,0-.18-3.12h0a2.41,2.41,0,0,0-3.28-.17l-17.77,16.93a2.14,2.14,0,0,0,.18,3.12Z" transform="translate(-36.79 -45.64)"/><path class="cls-12" d="M304.74,172.32l.59,25.25h25.41c4.45,0,5.48-.65,5.48-.65L336.09,171Z" transform="translate(-36.79 -45.64)"/><path class="cls-2" d="M338.63,170.21l-17.7-16c-.86-.81-31.9-.32-32.39.15-.95.9-1.34,4-.49,4.8l16.85,16c.83.81,32.58-.91,33.56-1.81A2.15,2.15,0,0,0,338.63,170.21Z" transform="translate(-36.79 -45.64)"/><path class="cls-13" d="M241.1,236.56c-5.64-4.12-12.54-7.82-18.91-11.65-2.35-1.41-5.92-3.06-9.22-5.09a26.79,26.79,0,0,1-5-3.85c-8.21,1.84-17.44,3.69-26.33,5.35,0,.38,0,.74,0,1.11a21.1,21.1,0,0,1-1.37,8.47c-1.54,3.64-3.4,7.08-4.28,10.35a16.64,16.64,0,0,0-.64,4.33c0,4.09,2,7.18,5.45,11.87a1.93,1.93,0,0,1,.15,2H254.5C253.69,250.09,249.79,243,241.1,236.56Zm198.59,10.5c-16.37-15.08-38.77-21.78-60.29-30.72-11.91-5-25.18-8.13-38-11.32-5.84-1.45-11.69-3.11-17.4-4.68-3.4-1-7.93-1.27-12-2.94-1,0-2,.06-2.86.11-16.19.49-41.69,4.38-61.33,8.44a28.18,28.18,0,0,0,6.11,3.74c4.7,2.22,10.24,3.75,15,5.24,12.85,4.07,25.25,6.85,37.09,14.48a81.26,81.26,0,0,1,16.3,13.44c4.26,4.79,7.44,10.39,8.14,16.57H452.78C448.73,255.18,444.17,251.16,439.7,247.06ZM303.29,233c-10.95-7.08-22.77-9.8-35.92-13.93-4.65-1.46-10.38-3-15.64-5.49a29.55,29.55,0,0,1-9.28-6.52c-6.93,1.52-12.84,3-16.89,4.35-3.26,1-7.51,2.15-12.15,3.26.68.5,1.39,1,2.18,1.46,3,1.84,6.46,3.44,9.18,5.07C231,225,238,228.71,244,233.12c9.67,7,14.42,15.72,15.22,26.3h66.45c-.69-4.85-3.26-9.52-7.05-13.78A76.47,76.47,0,0,0,303.29,233Zm125-38.09c-18.19-1.48-69,.61-100.49,1.87,4.93,1.37,9.89,2.75,14.8,4,12.81,3.18,26.31,6.38,38.73,11.55,21.17,8.84,44.24,15.61,61.7,31.6,5.33,4.92,11.09,9.86,16,15.49H486.1v-60.1S450.86,196.76,428.3,194.92Zm-289.19,46a55.34,55.34,0,0,0,8-6,9.76,9.76,0,0,0,3.22-7.2l0-.68c-17.74,3.25-40.69,7.49-40.69,7.49v24.92h19.4a9.33,9.33,0,0,1-1.94-5.14c0-3.25,2-5.78,4.34-7.83A69.9,69.9,0,0,1,139.11,240.88Zm32.25-.71c1.08-3.93,3.05-7.5,4.47-10.89a16.92,16.92,0,0,0,1-6.87v-.23c-8.09,1.49-15.67,2.83-21.4,3.89l-.55.11c0,.09.14.16.14.27l0,1.23a14.06,14.06,0,0,1-4.46,10.18c-2.57,2.58-5.75,4.54-8.73,6.56a69.82,69.82,0,0,0-7.17,5.19c-2,1.72-2.91,3.27-2.89,4.66,0,1,.44,2.32,2,4.08a1.94,1.94,0,0,1,.38,1.06h42.22c-3.31-4.46-5.93-8.47-5.93-13.85A21,21,0,0,1,171.36,240.18Z" transform="translate(-36.79 -45.64)"/></g><path class="cls-14" d="M84.32,293.83H62.68V281.39h4.71V250.05H62.68V237.62h21.7q12.78,0,19.56,7.08t6.79,21q0,13.53-6.74,20.85T84.32,293.83Zm-1.85-43.78v31.34h1.85a7.4,7.4,0,0,0,5.39-2,12.22,12.22,0,0,0,3.09-5.6,30,30,0,0,0,1-8.09q0-6.92-2.24-11.27a7.57,7.57,0,0,0-7.24-4.35Z" transform="translate(-36.79 -45.64)"/><path class="cls-14" d="M138.4,293.83H115.79V283.2h3.8V266.91h-3.8v-9.54l17.9-2.12v6.15a9.82,9.82,0,0,1,2.77-3.16,15.56,15.56,0,0,1,3.9-2.19,10.55,10.55,0,0,1,3.72-.79v15a16.07,16.07,0,0,0-5.68-1.38q-2.83,0-3.77,2a11.93,11.93,0,0,0-.94,5.14v7.24h4.71Z" transform="translate(-36.79 -45.64)"/><path class="cls-14" d="M165.22,294.47a18,18,0,0,1-9.51-2.44,15.71,15.71,0,0,1-6.23-6.89,23.91,23.91,0,0,1-2.16-10.49,23.46,23.46,0,0,1,2.12-10.32,15.65,15.65,0,0,1,5.92-6.71,16.72,16.72,0,0,1,9-2.37,15.64,15.64,0,0,1,8.36,2.23,15,15,0,0,1,5.61,6.4,22,22,0,0,1,2,9.65,13.43,13.43,0,0,1-.47,3.6H161.48a7,7,0,0,0,7.13,7.31,15,15,0,0,0,4.92-.94,20.86,20.86,0,0,0,5.39-2.91l.5.21v9.5a24.27,24.27,0,0,1-6.23,3.13A26,26,0,0,1,165.22,294.47Zm-3.74-24.59v1H169v-.74a9.19,9.19,0,0,0-1-4.33,3.05,3.05,0,0,0-2.84-1.82,3.12,3.12,0,0,0-2.65,1.85A7.78,7.78,0,0,0,161.48,269.88Z" transform="translate(-36.79 -45.64)"/><path class="cls-14" d="M196.13,294.47a10.68,10.68,0,0,1-5.45-1.41,10.16,10.16,0,0,1-3.95-4,12.18,12.18,0,0,1-1.47-6.08,11.23,11.23,0,0,1,1.74-6.36,10.79,10.79,0,0,1,4.55-3.82,14.57,14.57,0,0,1,6.08-1.27,20.39,20.39,0,0,1,7.42,1.38v-1.59a5,5,0,0,0-2-4.31,8.78,8.78,0,0,0-5.37-1.48,14.22,14.22,0,0,0-3.24.42,20.71,20.71,0,0,0-3.5,1.17,15.7,15.7,0,0,0-3,1.66l-.85-.42V258.07a33.21,33.21,0,0,1,7.27-2.17,40,40,0,0,1,6.92-.65q17.9,0,17.9,12.08V283.2H222v10.64H206.9L205.58,288a10.26,10.26,0,0,1-3.95,4.7A10,10,0,0,1,196.13,294.47Zm5.53-9a5.53,5.53,0,0,0,2-.39,3.69,3.69,0,0,0,1.4-.81v-5.94a8.78,8.78,0,0,1-1.41-.42,5.87,5.87,0,0,0-1.74-.32,3,3,0,0,0-2.49,1.17,4.85,4.85,0,0,0-.93,3.11,3.9,3.9,0,0,0,.87,2.53A2.82,2.82,0,0,0,201.66,285.42Z" transform="translate(-36.79 -45.64)"/><path class="cls-14" d="M285.89,269.8v13.82H290v10.21H271.79v-24.1A4.53,4.53,0,0,0,271,267a2.38,2.38,0,0,0-2-1.17q-2.15,0-2.71,2.58a36.09,36.09,0,0,0-.59,7.42v17.95H251.56v-24.1a4.6,4.6,0,0,0-.81-2.69,2.35,2.35,0,0,0-2-1.17q-2.15,0-2.71,2.58a36.09,36.09,0,0,0-.59,7.42v7.74h.06v10.21h-18.4V283.62h4.27V266.91h-4.27v-9.54l18.34-2.12v5.3a11.8,11.8,0,0,1,4.62-4.1,13.77,13.77,0,0,1,5.86-1.2q6.68,0,8.74,6.82a13.67,13.67,0,0,1,5-5.26,13.15,13.15,0,0,1,6.45-1.55Q285.89,255.25,285.89,269.8Z" transform="translate(-36.79 -45.64)"/><path class="cls-14" d="M351.92,250.05l-11.69,43.78H323l-10.6-43.78H307.5V237.62h25.44v12.44h-3.36l5.89,25.55,5.18-25.55h-3.86V237.62h20.46v12.44Z" transform="translate(-36.79 -45.64)"/><path class="cls-14" d="M368.2,294.47a10.68,10.68,0,0,1-5.45-1.41,10.15,10.15,0,0,1-3.94-4,12.17,12.17,0,0,1-1.47-6.08,11.23,11.23,0,0,1,1.74-6.36,10.79,10.79,0,0,1,4.55-3.82,14.57,14.57,0,0,1,6.08-1.27,20.39,20.39,0,0,1,7.42,1.38v-1.59a5,5,0,0,0-2-4.31,8.79,8.79,0,0,0-5.37-1.48,14.22,14.22,0,0,0-3.24.42,20.74,20.74,0,0,0-3.5,1.17,15.72,15.72,0,0,0-3,1.66l-.85-.42V258.07a33.2,33.2,0,0,1,7.27-2.17,40,40,0,0,1,6.92-.65q17.9,0,17.9,12.08V283.2H394v10.64H379L377.65,288a10.26,10.26,0,0,1-3.95,4.7A10,10,0,0,1,368.2,294.47Zm5.54-9a5.53,5.53,0,0,0,2-.39,3.69,3.69,0,0,0,1.4-.81v-5.94a8.81,8.81,0,0,1-1.41-.42,5.87,5.87,0,0,0-1.74-.32,3,3,0,0,0-2.49,1.17,4.85,4.85,0,0,0-.93,3.11,3.9,3.9,0,0,0,.87,2.53A2.82,2.82,0,0,0,373.74,285.42Z" transform="translate(-36.79 -45.64)"/><path class="cls-14" d="M422.69,283.2v10.64H398.88V283.2h5.18V250.62h-5.18V241l19.28-2.33V283.2Z" transform="translate(-36.79 -45.64)"/><path class="cls-14" d="M451.49,283.2v10.64H427.67V283.2h5.18V250.62h-5.18V241L447,238.68V283.2Z" transform="translate(-36.79 -45.64)"/><path class="cls-14" d="M473.51,294.47A18,18,0,0,1,464,292a15.71,15.71,0,0,1-6.23-6.89,23.91,23.91,0,0,1-2.16-10.49,23.46,23.46,0,0,1,2.12-10.32,15.65,15.65,0,0,1,5.92-6.71,16.72,16.72,0,0,1,9-2.37,15.64,15.64,0,0,1,8.36,2.23,15,15,0,0,1,5.61,6.4,22,22,0,0,1,2,9.65,13.39,13.39,0,0,1-.47,3.6H469.77a7,7,0,0,0,7.13,7.31,15,15,0,0,0,4.92-.94,20.83,20.83,0,0,0,5.39-2.91l.5.21v9.5a24.27,24.27,0,0,1-6.23,3.13A26,26,0,0,1,473.51,294.47Zm-3.74-24.59v1h7.54v-.74a9.19,9.19,0,0,0-1-4.33,3.05,3.05,0,0,0-2.84-1.82,3.12,3.12,0,0,0-2.65,1.85A7.78,7.78,0,0,0,469.77,269.88Z" transform="translate(-36.79 -45.64)"/><path class="cls-14" d="M519,282.19V294H497.43v-11.8h6.32l1.71-3.44-14.53-27.3h-4V239.92h23.34v11.54h-3.08l5.17,11.47,4.73-11.47h-3.39V239.92h17.39v11.54h-3.36l-13.6,30.74Z" transform="translate(-36.79 -45.64)"/><path class="cls-15" d="M84.32,293.83H62.68V281.39h4.71V250.05H62.68V237.62h21.7q12.78,0,19.56,7.08t6.79,21q0,13.53-6.74,20.85T84.32,293.83Zm-1.85-43.78v31.34h1.85a7.4,7.4,0,0,0,5.39-2,12.22,12.22,0,0,0,3.09-5.6,30,30,0,0,0,1-8.09q0-6.92-2.24-11.27a7.57,7.57,0,0,0-7.24-4.35Z" transform="translate(-36.79 -45.64)"/><path class="cls-15" d="M138.4,293.83H115.79V283.2h3.8V266.91h-3.8v-9.54l17.9-2.12v6.15a9.82,9.82,0,0,1,2.77-3.16,15.56,15.56,0,0,1,3.9-2.19,10.55,10.55,0,0,1,3.72-.79v15a16.07,16.07,0,0,0-5.68-1.38q-2.83,0-3.77,2a11.93,11.93,0,0,0-.94,5.14v7.24h4.71Z" transform="translate(-36.79 -45.64)"/><path class="cls-15" d="M165.22,294.47a18,18,0,0,1-9.51-2.44,15.71,15.71,0,0,1-6.23-6.89,23.91,23.91,0,0,1-2.16-10.49,23.46,23.46,0,0,1,2.12-10.32,15.65,15.65,0,0,1,5.92-6.71,16.72,16.72,0,0,1,9-2.37,15.64,15.64,0,0,1,8.36,2.23,15,15,0,0,1,5.61,6.4,22,22,0,0,1,2,9.65,13.43,13.43,0,0,1-.47,3.6H161.48a7,7,0,0,0,7.13,7.31,15,15,0,0,0,4.92-.94,20.86,20.86,0,0,0,5.39-2.91l.5.21v9.5a24.27,24.27,0,0,1-6.23,3.13A26,26,0,0,1,165.22,294.47Zm-3.74-24.59v1H169v-.74a9.19,9.19,0,0,0-1-4.33,3.05,3.05,0,0,0-2.84-1.82,3.12,3.12,0,0,0-2.65,1.85A7.78,7.78,0,0,0,161.48,269.88Z" transform="translate(-36.79 -45.64)"/><path class="cls-15" d="M196.13,294.47a10.68,10.68,0,0,1-5.45-1.41,10.16,10.16,0,0,1-3.95-4,12.18,12.18,0,0,1-1.47-6.08,11.23,11.23,0,0,1,1.74-6.36,10.79,10.79,0,0,1,4.55-3.82,14.57,14.57,0,0,1,6.08-1.27,20.39,20.39,0,0,1,7.42,1.38v-1.59a5,5,0,0,0-2-4.31,8.78,8.78,0,0,0-5.37-1.48,14.22,14.22,0,0,0-3.24.42,20.71,20.71,0,0,0-3.5,1.17,15.7,15.7,0,0,0-3,1.66l-.85-.42V258.07a33.21,33.21,0,0,1,7.27-2.17,40,40,0,0,1,6.92-.65q17.9,0,17.9,12.08V283.2H222v10.64H206.9L205.58,288a10.26,10.26,0,0,1-3.95,4.7A10,10,0,0,1,196.13,294.47Zm5.53-9a5.53,5.53,0,0,0,2-.39,3.69,3.69,0,0,0,1.4-.81v-5.94a8.78,8.78,0,0,1-1.41-.42,5.87,5.87,0,0,0-1.74-.32,3,3,0,0,0-2.49,1.17,4.85,4.85,0,0,0-.93,3.11,3.9,3.9,0,0,0,.87,2.53A2.82,2.82,0,0,0,201.66,285.42Z" transform="translate(-36.79 -45.64)"/><path class="cls-15" d="M285.89,269.8v13.82H290v10.21H271.79v-24.1A4.53,4.53,0,0,0,271,267a2.38,2.38,0,0,0-2-1.17q-2.15,0-2.71,2.58a36.09,36.09,0,0,0-.59,7.42v17.95H251.56v-24.1a4.6,4.6,0,0,0-.81-2.69,2.35,2.35,0,0,0-2-1.17q-2.15,0-2.71,2.58a36.09,36.09,0,0,0-.59,7.42v7.74h.06v10.21h-18.4V283.62h4.27V266.91h-4.27v-9.54l18.34-2.12v5.3a11.8,11.8,0,0,1,4.62-4.1,13.77,13.77,0,0,1,5.86-1.2q6.68,0,8.74,6.82a13.67,13.67,0,0,1,5-5.26,13.15,13.15,0,0,1,6.45-1.55Q285.89,255.25,285.89,269.8Z" transform="translate(-36.79 -45.64)"/><path class="cls-15" d="M351.92,250.05l-11.69,43.78H323l-10.6-43.78H307.5V237.62h25.44v12.44h-3.36l5.89,25.55,5.18-25.55h-3.86V237.62h20.46v12.44Z" transform="translate(-36.79 -45.64)"/><path class="cls-15" d="M368.2,294.47a10.68,10.68,0,0,1-5.45-1.41,10.15,10.15,0,0,1-3.94-4,12.17,12.17,0,0,1-1.47-6.08,11.23,11.23,0,0,1,1.74-6.36,10.79,10.79,0,0,1,4.55-3.82,14.57,14.57,0,0,1,6.08-1.27,20.39,20.39,0,0,1,7.42,1.38v-1.59a5,5,0,0,0-2-4.31,8.79,8.79,0,0,0-5.37-1.48,14.22,14.22,0,0,0-3.24.42,20.74,20.74,0,0,0-3.5,1.17,15.72,15.72,0,0,0-3,1.66l-.85-.42V258.07a33.2,33.2,0,0,1,7.27-2.17,40,40,0,0,1,6.92-.65q17.9,0,17.9,12.08V283.2H394v10.64H379L377.65,288a10.26,10.26,0,0,1-3.95,4.7A10,10,0,0,1,368.2,294.47Zm5.54-9a5.53,5.53,0,0,0,2-.39,3.69,3.69,0,0,0,1.4-.81v-5.94a8.81,8.81,0,0,1-1.41-.42,5.87,5.87,0,0,0-1.74-.32,3,3,0,0,0-2.49,1.17,4.85,4.85,0,0,0-.93,3.11,3.9,3.9,0,0,0,.87,2.53A2.82,2.82,0,0,0,373.74,285.42Z" transform="translate(-36.79 -45.64)"/><path class="cls-15" d="M422.69,283.2v10.64H398.88V283.2h5.18V250.62h-5.18V241l19.28-2.33V283.2Z" transform="translate(-36.79 -45.64)"/><path class="cls-15" d="M451.49,283.2v10.64H427.67V283.2h5.18V250.62h-5.18V241L447,238.68V283.2Z" transform="translate(-36.79 -45.64)"/><path class="cls-15" d="M473.51,294.47A18,18,0,0,1,464,292a15.71,15.71,0,0,1-6.23-6.89,23.91,23.91,0,0,1-2.16-10.49,23.46,23.46,0,0,1,2.12-10.32,15.65,15.65,0,0,1,5.92-6.71,16.72,16.72,0,0,1,9-2.37,15.64,15.64,0,0,1,8.36,2.23,15,15,0,0,1,5.61,6.4,22,22,0,0,1,2,9.65,13.39,13.39,0,0,1-.47,3.6H469.77a7,7,0,0,0,7.13,7.31,15,15,0,0,0,4.92-.94,20.83,20.83,0,0,0,5.39-2.91l.5.21v9.5a24.27,24.27,0,0,1-6.23,3.13A26,26,0,0,1,473.51,294.47Zm-3.74-24.59v1h7.54v-.74a9.19,9.19,0,0,0-1-4.33,3.05,3.05,0,0,0-2.84-1.82,3.12,3.12,0,0,0-2.65,1.85A7.78,7.78,0,0,0,469.77,269.88Z" transform="translate(-36.79 -45.64)"/><path class="cls-15" d="M519,282.19V294H497.43v-11.8h6.32l1.71-3.44-14.53-27.3h-4V239.92h23.34v11.54h-3.08l5.17,11.47,4.73-11.47h-3.39V239.92h17.39v11.54h-3.36l-13.6,30.74Z" transform="translate(-36.79 -45.64)"/><path class="cls-2" d="M514.53,189.22a17.9,17.9,0,0,1,3.25-.29,5.36,5.36,0,0,1,3.79,1.08,3.27,3.27,0,0,1,1,2.5,3.45,3.45,0,0,1-2.46,3.3v.05a3.39,3.39,0,0,1,1.92,2.63,24.22,24.22,0,0,0,1,3.59h-1.76a19.1,19.1,0,0,1-.85-3.12c-.38-1.8-1.09-2.49-2.62-2.55h-1.6v5.66h-1.69Zm1.69,5.93H518c1.8,0,2.94-1,2.94-2.48,0-1.69-1.22-2.43-3-2.43a6.66,6.66,0,0,0-1.67.16Z" transform="translate(-36.79 -45.64)"/><path class="cls-2" d="M518.26,206.38a10.92,10.92,0,1,1,10.91-10.92A10.94,10.94,0,0,1,518.26,206.38Zm0-20.54a9.62,9.62,0,1,0,9.62,9.62A9.63,9.63,0,0,0,518.26,185.84Z" transform="translate(-36.79 -45.64)"/><rect class="cls-3" x="385.04" y="206.91" width="7.27" height="8.52"/></svg>