<svg id="Layer_1" data-name="Layer 1" xmlns="http://www.w3.org/2000/svg" viewBox="0 0 562.37 230.24"><defs><style>.cls-1,.cls-2{fill:#008445;}.cls-1{fill-rule:evenodd;}</style></defs><title>veld</title><path class="cls-1" d="M407.63,227.28l-13-9.73-13,9.73a162.78,162.78,0,0,0-14,12.26,137.56,137.56,0,0,0-50.26-76.32l-12.94-9.73-13.11,9.83c-24.93,18.68-42.51,46-50.2,76.38a139.18,139.18,0,0,0-14-12.43l-12.94-9.73L201,227.28a137.32,137.32,0,0,0-51.42,82.05h44.77a93.69,93.69,0,0,1,19.81-35,93.59,93.59,0,0,1,19.56,35H287a96,96,0,0,1,17.38-98.92,95.34,95.34,0,0,1,24.18,63.48,99.21,99.21,0,0,1-6.93,35.44H375a94.77,94.77,0,0,1,19.67-35,97,97,0,0,1,19.77,35h44.8C452.4,276.69,434.3,247.19,407.63,227.28Z" transform="translate(-23.23 -153.49)"/><path class="cls-2" d="M29.67,338.15a46.31,46.31,0,0,0-2.49-5.33,74,74,0,0,0-3.94-6.49H42.78a13.58,13.58,0,0,0-.15,3.42,8.7,8.7,0,0,0,.46,3.07l9,30.66h0L62.2,332.82a24,24,0,0,0,.58-3.07,9.49,9.49,0,0,0-.14-3.42h17.6a53.68,53.68,0,0,0-2.87,4.78c-.82,1.71-1.91,4.13-3.14,7L57.3,382.81H44.95Z" transform="translate(-23.23 -153.49)"/><path class="cls-2" d="M90.49,382.81A28.17,28.17,0,0,0,92,377.45a36.49,36.49,0,0,0,.41-6.52V338.15a34.65,34.65,0,0,0-.41-6.42,27.08,27.08,0,0,0-1.54-5.39h33.7l-2.7,6.11-2.73,6.08a21.72,21.72,0,0,0-6.32-1.67c-2-.38-3.86-.58-5.67-.75v13H123l-3.31,6.28-3.18,6.18a21.05,21.05,0,0,0-6.21-1.74,21.39,21.39,0,0,0-3.55-.58v13.56a81.73,81.73,0,0,0,9.49-1,38.27,38.27,0,0,0,11.13-4.13l-3.07,7.58-3.07,7.62H90.49Z" transform="translate(-23.23 -153.49)"/><path class="cls-2" d="M141.06,382.81a30.56,30.56,0,0,0,1.47-5.36,64.66,64.66,0,0,0,.41-6.52V338.15a60.52,60.52,0,0,0-.41-6.42,29.31,29.31,0,0,0-1.47-5.39h18.13a25,25,0,0,0-1.5,5.39,34.49,34.49,0,0,0-.44,6.42v34.52c3-.2,5.74-.55,7.92-.92a37.86,37.86,0,0,0,11.13-4.13l-3.11,7.58-3,7.62H141.06Z" transform="translate(-23.23 -153.49)"/><path class="cls-2" d="M191.12,370.93V338.15a34.15,34.15,0,0,0-.48-6.42,32.3,32.3,0,0,0-1.43-5.39h16.29c9.36,0,16.83,2.6,22.57,7.75s8.5,12,8.5,20.45c0,8.74-2.66,15.57-8.16,20.66s-12.84,7.62-22.16,7.62h-17a33.82,33.82,0,0,0,1.43-5.36A36.06,36.06,0,0,0,191.12,370.93Zm14.27.75h.85c4.51,0,8.16-1.44,10.82-4.58s4-7.24,4-12.4c0-5.7-1.4-10.25-4.16-13.69A14.53,14.53,0,0,0,205.39,336Z" transform="translate(-23.23 -153.49)"/><path class="cls-2" d="M294.92,382.81l-11.47-44.66a44.55,44.55,0,0,0-2-6.73,50,50,0,0,0-2.32-5.09h18.4a28.7,28.7,0,0,0-.45,4.78,24.4,24.4,0,0,0,.58,4.34l4.54,22.5,6.15-23.42a43.59,43.59,0,0,0,1-4.41c.31-1.57.51-2.87.61-3.79H320a31.72,31.72,0,0,0,.61,4.1,27.75,27.75,0,0,0,.89,4.1l6,24.45,5.33-26.16a13.35,13.35,0,0,0,.31-3.07,20.72,20.72,0,0,0-.58-3.42h17.69a28.9,28.9,0,0,0-2.39,5.09,43.77,43.77,0,0,0-2.15,6.73l-11.51,44.66H323.09L314.31,354l-8.13,28.85H294.92Z" transform="translate(-23.23 -153.49)"/><path class="cls-2" d="M367.75,375.64c-5.46-5.39-8.16-12.43-8.16-21s2.7-15.47,8.16-20.93,12.46-8.23,21-8.23,15.74,2.87,21.17,8.23,8.23,12.46,8.23,20.93-2.7,15.64-8.23,21-12.5,8.09-21.17,8.09S373.18,381,367.75,375.64Zm33.33-10.21a32.76,32.76,0,0,0,1.54-10.07A18.29,18.29,0,0,0,396.44,341c-4.06-3.48-9.29-4.92-15.81-4.41a17.62,17.62,0,0,0-4.06,7.2,34.06,34.06,0,0,0-1.5,10.21c0,6.08,2,10.79,6.15,14.27s9.32,5,15.81,4.37A17.78,17.78,0,0,0,401.08,365.43Z" transform="translate(-23.23 -153.49)"/><path class="cls-2" d="M434.47,370.93V338.15a41.59,41.59,0,0,0-.44-6.42,27.06,27.06,0,0,0-1.57-5.39h18.92c6.72,0,11.88,1.44,15.57,4.3,3.69,3,5.46,7.17,5.46,12.43a14.36,14.36,0,0,1-6.11,12.29,20.47,20.47,0,0,1-4.71,2.6l8.67,13a71.76,71.76,0,0,0,5,6.56,53.19,53.19,0,0,0,5.39,5.29h-15c-1,0-2.49-1.33-4.88-4a79.54,79.54,0,0,1-7-9.83l-5.15-8.4V371a41,41,0,0,0,.51,6.49,22,22,0,0,0,1.5,5.36H432.46a28.18,28.18,0,0,0,1.57-5.36A44,44,0,0,0,434.47,370.93Zm14.21-19.33h.51a9.78,9.78,0,0,0,6.56-2.22,7.84,7.84,0,0,0,2.53-6,6.57,6.57,0,0,0-2.39-5.19,9.2,9.2,0,0,0-6.18-1.95h-1Z" transform="translate(-23.23 -153.49)"/><path class="cls-2" d="M489.92,382.81a28,28,0,0,0,1.54-5.36,48.15,48.15,0,0,0,.48-6.52V338.15a45.27,45.27,0,0,0-.48-6.42,27,27,0,0,0-1.54-5.39h18.2a29.42,29.42,0,0,0-1.5,5.39,42.67,42.67,0,0,0-.37,6.42v34.52a76.84,76.84,0,0,0,7.89-.92,37,37,0,0,0,11.1-4.13l-3,7.58-3,7.62h-29.3Z" transform="translate(-23.23 -153.49)"/><path class="cls-2" d="M540,370.93V338.15a41.86,41.86,0,0,0-.41-6.42,27,27,0,0,0-1.5-5.39h16.25c9.43,0,16.83,2.6,22.61,7.75s8.6,12,8.6,20.45c0,8.74-2.77,15.57-8.26,20.66s-12.8,7.62-22.16,7.62h-17a28,28,0,0,0,1.5-5.36A44.26,44.26,0,0,0,540,370.93Zm14.34.75h.79c4.58,0,8.23-1.44,10.79-4.58s4.06-7.24,4.06-12.4c0-5.7-1.4-10.25-4.2-13.69A14.58,14.58,0,0,0,554.39,336Z" transform="translate(-23.23 -153.49)"/><path class="cls-2" d="M453.66,220.65a31.27,31.27,0,0,1,5.67-.48c3.24,0,5.19.58,6.66,1.81a6,6,0,0,1,1.88,4.37,6,6,0,0,1-4.37,5.8v.14c1.74.55,2.77,2.22,3.25,4.51a44.22,44.22,0,0,0,1.84,6.25h-3.14a45.33,45.33,0,0,1-1.43-5.46c-.75-3.07-1.84-4.3-4.54-4.41H456.7v9.87h-3Zm3,10.34h3c3.17,0,5.19-1.81,5.19-4.37,0-2.83-2.22-4.2-5.36-4.2a18.56,18.56,0,0,0-2.8.24Z" transform="translate(-23.23 -153.49)"/><path class="cls-2" d="M469.3,243.57h-4.06l-.14-.34a25.39,25.39,0,0,1-1.61-5.39c-.58-3-1.6-4-4.1-4h-2.15v9.77h-4V220.28l.37-.1a30.79,30.79,0,0,1,5.74-.44c3.31,0,5.46.58,7,2a5.82,5.82,0,0,1,2,4.61,6.41,6.41,0,0,1-3.76,5.87c1.4.78,2.22,2.29,2.77,4.47a41.44,41.44,0,0,0,1.71,6.14Zm-3.52-1h2.08c-.41-1.13-.92-3.07-1.57-5.63-.51-2.36-1.5-3.79-3-4.3h-.31v-.82l.31-.17a5.62,5.62,0,0,0,2.46-9.29c-1.4-1.26-3.31-1.74-6.39-1.74a29.62,29.62,0,0,0-5.05.44v21.51h1.91v-9.9h3.28c2.94.14,4.37,1.47,5,4.88A39.24,39.24,0,0,0,465.78,242.61Zm-6.11-11.13h-3.48v-9.15l.37-.07a9.72,9.72,0,0,1,2.94-.31c3.76,0,5.8,1.71,5.8,4.68S463.05,231.48,459.67,231.48Zm-2.43-1h2.43c2.9,0,4.54-1.4,4.54-3.83,0-3-2.53-3.69-4.71-3.69-1.13,0-1.91.14-2.25.14Z" transform="translate(-23.23 -153.49)"/><path class="cls-2" d="M460.18,250.56a19,19,0,1,1,19-19.09A19,19,0,0,1,460.18,250.56Zm0-35.82A16.8,16.8,0,1,0,477,231.48,16.73,16.73,0,0,0,460.18,214.75Z" transform="translate(-23.23 -153.49)"/><path class="cls-2" d="M460.18,251.32a19.86,19.86,0,1,1,19.87-19.84A19.8,19.8,0,0,1,460.18,251.32Zm0-37.93a18.16,18.16,0,1,0,18.2,18.1A18.17,18.17,0,0,0,460.18,213.38Zm0,35.68a17.57,17.57,0,1,1,17.55-17.59A17.64,17.64,0,0,1,460.18,249.06Zm0-33.46a15.91,15.91,0,1,0,15.91,15.88A15.89,15.89,0,0,0,460.18,215.6Z" transform="translate(-23.23 -153.49)"/></svg>