<svg id="Layer_1" data-name="Layer 1" xmlns="http://www.w3.org/2000/svg" viewBox="0 0 305.92 144.24"><defs><style>.cls-1,.cls-2{fill:#008445;}.cls-1{fill-rule:evenodd;}</style></defs><title>favicon</title><path class="cls-1" d="M260.3,154.05l-12-9-12.07,9a150.66,150.66,0,0,0-13,11.35,127.31,127.31,0,0,0-46.52-70.63l-12-9-12.13,9.1c-23.07,17.29-39.35,42.54-46.46,70.7a128.82,128.82,0,0,0-13-11.5l-12-9-12.17,9A127.09,127.09,0,0,0,21.41,230H62.85A86.71,86.71,0,0,1,81.18,197.6,86.62,86.62,0,0,1,99.28,230h49.33a88.85,88.85,0,0,1,16.09-91.55,88.24,88.24,0,0,1,22.38,58.75,91.82,91.82,0,0,1-6.42,32.8h49.4a87.71,87.71,0,0,1,18.2-32.39A89.76,89.76,0,0,1,266.56,230H308C301.73,199.78,285,172.48,260.3,154.05Z" transform="translate(-21.41 -85.76)"/><path class="cls-2" d="M302.9,147.92a29,29,0,0,1,5.25-.44c3,0,4.8.54,6.16,1.67a5.52,5.52,0,0,1,1.74,4,5.6,5.6,0,0,1-4,5.37v.13c1.61.51,2.56,2.05,3,4.17a40.93,40.93,0,0,0,1.71,5.78h-2.91a42,42,0,0,1-1.33-5.06c-.69-2.85-1.71-4-4.2-4.08h-2.56v9.13H302.9Zm2.81,9.57h2.75c2.94,0,4.8-1.67,4.8-4,0-2.62-2.05-3.89-5-3.89a17.18,17.18,0,0,0-2.59.22Z" transform="translate(-21.41 -85.76)"/><path class="cls-2" d="M317.38,169.13h-3.76l-.13-.32a23.5,23.5,0,0,1-1.49-5c-.54-2.78-1.48-3.73-3.79-3.73h-2v9h-3.73V147.57l.35-.09a28.5,28.5,0,0,1,5.31-.41c3.07,0,5.06.54,6.45,1.86a5.38,5.38,0,0,1,1.83,4.27,5.93,5.93,0,0,1-3.48,5.44c1.3.73,2.06,2.12,2.56,4.14a38.36,38.36,0,0,0,1.58,5.69Zm-3.26-.89H316c-.38-1-.85-2.85-1.45-5.22-.47-2.18-1.39-3.51-2.81-4h-.29v-.76l.29-.16a5.2,5.2,0,0,0,2.27-8.6c-1.3-1.17-3.07-1.61-5.91-1.61a27.41,27.41,0,0,0-4.68.41v19.91h1.77v-9.17h3c2.72.13,4,1.36,4.64,4.52A36.32,36.32,0,0,0,314.12,168.24Zm-5.66-10.3h-3.22v-8.47l.35-.06a9,9,0,0,1,2.72-.29c3.48,0,5.37,1.58,5.37,4.33S311.59,157.94,308.47,157.94Zm-2.25-.95h2.25c2.68,0,4.2-1.3,4.2-3.54,0-2.81-2.34-3.41-4.36-3.41-1,0-1.77.13-2.09.13Z" transform="translate(-21.41 -85.76)"/><path class="cls-2" d="M308.94,175.61a17.59,17.59,0,1,1,17.6-17.67A17.59,17.59,0,0,1,308.94,175.61Zm0-33.15a15.55,15.55,0,1,0,15.55,15.49A15.48,15.48,0,0,0,308.94,142.45Z" transform="translate(-21.41 -85.76)"/><path class="cls-2" d="M308.94,176.3a18.38,18.38,0,1,1,18.39-18.36A18.32,18.32,0,0,1,308.94,176.3Zm0-35.11a16.81,16.81,0,1,0,16.84,16.75A16.82,16.82,0,0,0,308.94,141.19Zm0,33a16.26,16.26,0,1,1,16.24-16.28A16.33,16.33,0,0,1,308.94,174.22Zm0-31a14.73,14.73,0,1,0,14.73,14.7A14.7,14.7,0,0,0,308.94,143.24Z" transform="translate(-21.41 -85.76)"/></svg>